%TF.GenerationSoftware,KiCad,Pcbnew,9.0.4*%
%TF.CreationDate,2025-10-26T13:38:01-07:00*%
%TF.ProjectId,db-collector,64622d63-6f6c-46c6-9563-746f722e6b69,rev?*%
%TF.SameCoordinates,Original*%
%TF.FileFunction,Legend,Bot*%
%TF.FilePolarity,Positive*%
%FSLAX46Y46*%
G04 Gerber Fmt 4.6, Leading zero omitted, Abs format (unit mm)*
G04 Created by KiCad (PCBNEW 9.0.4) date 2025-10-26 13:38:01*
%MOMM*%
%LPD*%
G01*
G04 APERTURE LIST*
G04 Aperture macros list*
%AMRoundRect*
0 Rectangle with rounded corners*
0 $1 Rounding radius*
0 $2 $3 $4 $5 $6 $7 $8 $9 X,Y pos of 4 corners*
0 Add a 4 corners polygon primitive as box body*
4,1,4,$2,$3,$4,$5,$6,$7,$8,$9,$2,$3,0*
0 Add four circle primitives for the rounded corners*
1,1,$1+$1,$2,$3*
1,1,$1+$1,$4,$5*
1,1,$1+$1,$6,$7*
1,1,$1+$1,$8,$9*
0 Add four rect primitives between the rounded corners*
20,1,$1+$1,$2,$3,$4,$5,0*
20,1,$1+$1,$4,$5,$6,$7,0*
20,1,$1+$1,$6,$7,$8,$9,0*
20,1,$1+$1,$8,$9,$2,$3,0*%
G04 Aperture macros list end*
%ADD10C,0.150000*%
%ADD11C,0.254000*%
%ADD12C,0.200000*%
%ADD13C,0.120000*%
%ADD14C,0.100000*%
%ADD15C,1.562000*%
%ADD16RoundRect,0.102000X-0.679000X-0.679000X0.679000X-0.679000X0.679000X0.679000X-0.679000X0.679000X0*%
%ADD17C,1.700000*%
%ADD18R,1.700000X1.700000*%
%ADD19RoundRect,0.250000X-0.550000X0.550000X-0.550000X-0.550000X0.550000X-0.550000X0.550000X0.550000X0*%
%ADD20C,1.600000*%
%ADD21RoundRect,0.250000X0.450000X-0.350000X0.450000X0.350000X-0.450000X0.350000X-0.450000X-0.350000X0*%
%ADD22RoundRect,0.250000X0.475000X-0.337500X0.475000X0.337500X-0.475000X0.337500X-0.475000X-0.337500X0*%
%ADD23RoundRect,0.250000X-0.450000X0.350000X-0.450000X-0.350000X0.450000X-0.350000X0.450000X0.350000X0*%
%ADD24R,0.600000X0.400000*%
%ADD25C,1.650000*%
G04 APERTURE END LIST*
D10*
X133619047Y-88031009D02*
X133476190Y-88078628D01*
X133476190Y-88078628D02*
X133428571Y-88126247D01*
X133428571Y-88126247D02*
X133380952Y-88221485D01*
X133380952Y-88221485D02*
X133380952Y-88364342D01*
X133380952Y-88364342D02*
X133428571Y-88459580D01*
X133428571Y-88459580D02*
X133476190Y-88507200D01*
X133476190Y-88507200D02*
X133571428Y-88554819D01*
X133571428Y-88554819D02*
X133952380Y-88554819D01*
X133952380Y-88554819D02*
X133952380Y-87554819D01*
X133952380Y-87554819D02*
X133619047Y-87554819D01*
X133619047Y-87554819D02*
X133523809Y-87602438D01*
X133523809Y-87602438D02*
X133476190Y-87650057D01*
X133476190Y-87650057D02*
X133428571Y-87745295D01*
X133428571Y-87745295D02*
X133428571Y-87840533D01*
X133428571Y-87840533D02*
X133476190Y-87935771D01*
X133476190Y-87935771D02*
X133523809Y-87983390D01*
X133523809Y-87983390D02*
X133619047Y-88031009D01*
X133619047Y-88031009D02*
X133952380Y-88031009D01*
X132999999Y-88269104D02*
X132523809Y-88269104D01*
X133095237Y-88554819D02*
X132761904Y-87554819D01*
X132761904Y-87554819D02*
X132428571Y-88554819D01*
X132238094Y-87554819D02*
X131666666Y-87554819D01*
X131952380Y-88554819D02*
X131952380Y-87554819D01*
X131476189Y-87554819D02*
X130904761Y-87554819D01*
X131190475Y-88554819D02*
X131190475Y-87554819D01*
X135061904Y-67954819D02*
X135061904Y-68764342D01*
X135061904Y-68764342D02*
X135014285Y-68859580D01*
X135014285Y-68859580D02*
X134966666Y-68907200D01*
X134966666Y-68907200D02*
X134871428Y-68954819D01*
X134871428Y-68954819D02*
X134680952Y-68954819D01*
X134680952Y-68954819D02*
X134585714Y-68907200D01*
X134585714Y-68907200D02*
X134538095Y-68859580D01*
X134538095Y-68859580D02*
X134490476Y-68764342D01*
X134490476Y-68764342D02*
X134490476Y-67954819D01*
X133490476Y-68954819D02*
X134061904Y-68954819D01*
X133776190Y-68954819D02*
X133776190Y-67954819D01*
X133776190Y-67954819D02*
X133871428Y-68097676D01*
X133871428Y-68097676D02*
X133966666Y-68192914D01*
X133966666Y-68192914D02*
X134061904Y-68240533D01*
X132733333Y-86254819D02*
X132733333Y-86969104D01*
X132733333Y-86969104D02*
X132780952Y-87111961D01*
X132780952Y-87111961D02*
X132876190Y-87207200D01*
X132876190Y-87207200D02*
X133019047Y-87254819D01*
X133019047Y-87254819D02*
X133114285Y-87254819D01*
X131733333Y-87254819D02*
X132304761Y-87254819D01*
X132019047Y-87254819D02*
X132019047Y-86254819D01*
X132019047Y-86254819D02*
X132114285Y-86397676D01*
X132114285Y-86397676D02*
X132209523Y-86492914D01*
X132209523Y-86492914D02*
X132304761Y-86540533D01*
X139142857Y-88759580D02*
X139190476Y-88807200D01*
X139190476Y-88807200D02*
X139333333Y-88854819D01*
X139333333Y-88854819D02*
X139428571Y-88854819D01*
X139428571Y-88854819D02*
X139571428Y-88807200D01*
X139571428Y-88807200D02*
X139666666Y-88711961D01*
X139666666Y-88711961D02*
X139714285Y-88616723D01*
X139714285Y-88616723D02*
X139761904Y-88426247D01*
X139761904Y-88426247D02*
X139761904Y-88283390D01*
X139761904Y-88283390D02*
X139714285Y-88092914D01*
X139714285Y-88092914D02*
X139666666Y-87997676D01*
X139666666Y-87997676D02*
X139571428Y-87902438D01*
X139571428Y-87902438D02*
X139428571Y-87854819D01*
X139428571Y-87854819D02*
X139333333Y-87854819D01*
X139333333Y-87854819D02*
X139190476Y-87902438D01*
X139190476Y-87902438D02*
X139142857Y-87950057D01*
X138190476Y-88854819D02*
X138761904Y-88854819D01*
X138476190Y-88854819D02*
X138476190Y-87854819D01*
X138476190Y-87854819D02*
X138571428Y-87997676D01*
X138571428Y-87997676D02*
X138666666Y-88092914D01*
X138666666Y-88092914D02*
X138761904Y-88140533D01*
X137571428Y-87854819D02*
X137476190Y-87854819D01*
X137476190Y-87854819D02*
X137380952Y-87902438D01*
X137380952Y-87902438D02*
X137333333Y-87950057D01*
X137333333Y-87950057D02*
X137285714Y-88045295D01*
X137285714Y-88045295D02*
X137238095Y-88235771D01*
X137238095Y-88235771D02*
X137238095Y-88473866D01*
X137238095Y-88473866D02*
X137285714Y-88664342D01*
X137285714Y-88664342D02*
X137333333Y-88759580D01*
X137333333Y-88759580D02*
X137380952Y-88807200D01*
X137380952Y-88807200D02*
X137476190Y-88854819D01*
X137476190Y-88854819D02*
X137571428Y-88854819D01*
X137571428Y-88854819D02*
X137666666Y-88807200D01*
X137666666Y-88807200D02*
X137714285Y-88759580D01*
X137714285Y-88759580D02*
X137761904Y-88664342D01*
X137761904Y-88664342D02*
X137809523Y-88473866D01*
X137809523Y-88473866D02*
X137809523Y-88235771D01*
X137809523Y-88235771D02*
X137761904Y-88045295D01*
X137761904Y-88045295D02*
X137714285Y-87950057D01*
X137714285Y-87950057D02*
X137666666Y-87902438D01*
X137666666Y-87902438D02*
X137571428Y-87854819D01*
X145472381Y-65755833D02*
X144996190Y-65422500D01*
X145472381Y-65184405D02*
X144472381Y-65184405D01*
X144472381Y-65184405D02*
X144472381Y-65565357D01*
X144472381Y-65565357D02*
X144520000Y-65660595D01*
X144520000Y-65660595D02*
X144567619Y-65708214D01*
X144567619Y-65708214D02*
X144662857Y-65755833D01*
X144662857Y-65755833D02*
X144805714Y-65755833D01*
X144805714Y-65755833D02*
X144900952Y-65708214D01*
X144900952Y-65708214D02*
X144948571Y-65660595D01*
X144948571Y-65660595D02*
X144996190Y-65565357D01*
X144996190Y-65565357D02*
X144996190Y-65184405D01*
X145472381Y-66708214D02*
X145472381Y-66136786D01*
X145472381Y-66422500D02*
X144472381Y-66422500D01*
X144472381Y-66422500D02*
X144615238Y-66327262D01*
X144615238Y-66327262D02*
X144710476Y-66232024D01*
X144710476Y-66232024D02*
X144758095Y-66136786D01*
X136366666Y-63759580D02*
X136414285Y-63807200D01*
X136414285Y-63807200D02*
X136557142Y-63854819D01*
X136557142Y-63854819D02*
X136652380Y-63854819D01*
X136652380Y-63854819D02*
X136795237Y-63807200D01*
X136795237Y-63807200D02*
X136890475Y-63711961D01*
X136890475Y-63711961D02*
X136938094Y-63616723D01*
X136938094Y-63616723D02*
X136985713Y-63426247D01*
X136985713Y-63426247D02*
X136985713Y-63283390D01*
X136985713Y-63283390D02*
X136938094Y-63092914D01*
X136938094Y-63092914D02*
X136890475Y-62997676D01*
X136890475Y-62997676D02*
X136795237Y-62902438D01*
X136795237Y-62902438D02*
X136652380Y-62854819D01*
X136652380Y-62854819D02*
X136557142Y-62854819D01*
X136557142Y-62854819D02*
X136414285Y-62902438D01*
X136414285Y-62902438D02*
X136366666Y-62950057D01*
X136033332Y-62854819D02*
X135414285Y-62854819D01*
X135414285Y-62854819D02*
X135747618Y-63235771D01*
X135747618Y-63235771D02*
X135604761Y-63235771D01*
X135604761Y-63235771D02*
X135509523Y-63283390D01*
X135509523Y-63283390D02*
X135461904Y-63331009D01*
X135461904Y-63331009D02*
X135414285Y-63426247D01*
X135414285Y-63426247D02*
X135414285Y-63664342D01*
X135414285Y-63664342D02*
X135461904Y-63759580D01*
X135461904Y-63759580D02*
X135509523Y-63807200D01*
X135509523Y-63807200D02*
X135604761Y-63854819D01*
X135604761Y-63854819D02*
X135890475Y-63854819D01*
X135890475Y-63854819D02*
X135985713Y-63807200D01*
X135985713Y-63807200D02*
X136033332Y-63759580D01*
X144238094Y-73829819D02*
X144238094Y-72829819D01*
X144238094Y-72829819D02*
X143999999Y-72829819D01*
X143999999Y-72829819D02*
X143857142Y-72877438D01*
X143857142Y-72877438D02*
X143761904Y-72972676D01*
X143761904Y-72972676D02*
X143714285Y-73067914D01*
X143714285Y-73067914D02*
X143666666Y-73258390D01*
X143666666Y-73258390D02*
X143666666Y-73401247D01*
X143666666Y-73401247D02*
X143714285Y-73591723D01*
X143714285Y-73591723D02*
X143761904Y-73686961D01*
X143761904Y-73686961D02*
X143857142Y-73782200D01*
X143857142Y-73782200D02*
X143999999Y-73829819D01*
X143999999Y-73829819D02*
X144238094Y-73829819D01*
X143333332Y-72829819D02*
X142714285Y-72829819D01*
X142714285Y-72829819D02*
X143047618Y-73210771D01*
X143047618Y-73210771D02*
X142904761Y-73210771D01*
X142904761Y-73210771D02*
X142809523Y-73258390D01*
X142809523Y-73258390D02*
X142761904Y-73306009D01*
X142761904Y-73306009D02*
X142714285Y-73401247D01*
X142714285Y-73401247D02*
X142714285Y-73639342D01*
X142714285Y-73639342D02*
X142761904Y-73734580D01*
X142761904Y-73734580D02*
X142809523Y-73782200D01*
X142809523Y-73782200D02*
X142904761Y-73829819D01*
X142904761Y-73829819D02*
X143190475Y-73829819D01*
X143190475Y-73829819D02*
X143285713Y-73782200D01*
X143285713Y-73782200D02*
X143333332Y-73734580D01*
X142304819Y-70633333D02*
X141828628Y-70300000D01*
X142304819Y-70061905D02*
X141304819Y-70061905D01*
X141304819Y-70061905D02*
X141304819Y-70442857D01*
X141304819Y-70442857D02*
X141352438Y-70538095D01*
X141352438Y-70538095D02*
X141400057Y-70585714D01*
X141400057Y-70585714D02*
X141495295Y-70633333D01*
X141495295Y-70633333D02*
X141638152Y-70633333D01*
X141638152Y-70633333D02*
X141733390Y-70585714D01*
X141733390Y-70585714D02*
X141781009Y-70538095D01*
X141781009Y-70538095D02*
X141828628Y-70442857D01*
X141828628Y-70442857D02*
X141828628Y-70061905D01*
X141400057Y-71014286D02*
X141352438Y-71061905D01*
X141352438Y-71061905D02*
X141304819Y-71157143D01*
X141304819Y-71157143D02*
X141304819Y-71395238D01*
X141304819Y-71395238D02*
X141352438Y-71490476D01*
X141352438Y-71490476D02*
X141400057Y-71538095D01*
X141400057Y-71538095D02*
X141495295Y-71585714D01*
X141495295Y-71585714D02*
X141590533Y-71585714D01*
X141590533Y-71585714D02*
X141733390Y-71538095D01*
X141733390Y-71538095D02*
X142304819Y-70966667D01*
X142304819Y-70966667D02*
X142304819Y-71585714D01*
X140528094Y-73829819D02*
X140528094Y-72829819D01*
X140528094Y-72829819D02*
X140289999Y-72829819D01*
X140289999Y-72829819D02*
X140147142Y-72877438D01*
X140147142Y-72877438D02*
X140051904Y-72972676D01*
X140051904Y-72972676D02*
X140004285Y-73067914D01*
X140004285Y-73067914D02*
X139956666Y-73258390D01*
X139956666Y-73258390D02*
X139956666Y-73401247D01*
X139956666Y-73401247D02*
X140004285Y-73591723D01*
X140004285Y-73591723D02*
X140051904Y-73686961D01*
X140051904Y-73686961D02*
X140147142Y-73782200D01*
X140147142Y-73782200D02*
X140289999Y-73829819D01*
X140289999Y-73829819D02*
X140528094Y-73829819D01*
X139575713Y-72925057D02*
X139528094Y-72877438D01*
X139528094Y-72877438D02*
X139432856Y-72829819D01*
X139432856Y-72829819D02*
X139194761Y-72829819D01*
X139194761Y-72829819D02*
X139099523Y-72877438D01*
X139099523Y-72877438D02*
X139051904Y-72925057D01*
X139051904Y-72925057D02*
X139004285Y-73020295D01*
X139004285Y-73020295D02*
X139004285Y-73115533D01*
X139004285Y-73115533D02*
X139051904Y-73258390D01*
X139051904Y-73258390D02*
X139623332Y-73829819D01*
X139623332Y-73829819D02*
X139004285Y-73829819D01*
X138604819Y-70633333D02*
X138128628Y-70300000D01*
X138604819Y-70061905D02*
X137604819Y-70061905D01*
X137604819Y-70061905D02*
X137604819Y-70442857D01*
X137604819Y-70442857D02*
X137652438Y-70538095D01*
X137652438Y-70538095D02*
X137700057Y-70585714D01*
X137700057Y-70585714D02*
X137795295Y-70633333D01*
X137795295Y-70633333D02*
X137938152Y-70633333D01*
X137938152Y-70633333D02*
X138033390Y-70585714D01*
X138033390Y-70585714D02*
X138081009Y-70538095D01*
X138081009Y-70538095D02*
X138128628Y-70442857D01*
X138128628Y-70442857D02*
X138128628Y-70061905D01*
X137604819Y-70966667D02*
X137604819Y-71585714D01*
X137604819Y-71585714D02*
X137985771Y-71252381D01*
X137985771Y-71252381D02*
X137985771Y-71395238D01*
X137985771Y-71395238D02*
X138033390Y-71490476D01*
X138033390Y-71490476D02*
X138081009Y-71538095D01*
X138081009Y-71538095D02*
X138176247Y-71585714D01*
X138176247Y-71585714D02*
X138414342Y-71585714D01*
X138414342Y-71585714D02*
X138509580Y-71538095D01*
X138509580Y-71538095D02*
X138557200Y-71490476D01*
X138557200Y-71490476D02*
X138604819Y-71395238D01*
X138604819Y-71395238D02*
X138604819Y-71109524D01*
X138604819Y-71109524D02*
X138557200Y-71014286D01*
X138557200Y-71014286D02*
X138509580Y-70966667D01*
X136838094Y-73854819D02*
X136838094Y-72854819D01*
X136838094Y-72854819D02*
X136599999Y-72854819D01*
X136599999Y-72854819D02*
X136457142Y-72902438D01*
X136457142Y-72902438D02*
X136361904Y-72997676D01*
X136361904Y-72997676D02*
X136314285Y-73092914D01*
X136314285Y-73092914D02*
X136266666Y-73283390D01*
X136266666Y-73283390D02*
X136266666Y-73426247D01*
X136266666Y-73426247D02*
X136314285Y-73616723D01*
X136314285Y-73616723D02*
X136361904Y-73711961D01*
X136361904Y-73711961D02*
X136457142Y-73807200D01*
X136457142Y-73807200D02*
X136599999Y-73854819D01*
X136599999Y-73854819D02*
X136838094Y-73854819D01*
X135314285Y-73854819D02*
X135885713Y-73854819D01*
X135599999Y-73854819D02*
X135599999Y-72854819D01*
X135599999Y-72854819D02*
X135695237Y-72997676D01*
X135695237Y-72997676D02*
X135790475Y-73092914D01*
X135790475Y-73092914D02*
X135885713Y-73140533D01*
X134904819Y-70633333D02*
X134428628Y-70300000D01*
X134904819Y-70061905D02*
X133904819Y-70061905D01*
X133904819Y-70061905D02*
X133904819Y-70442857D01*
X133904819Y-70442857D02*
X133952438Y-70538095D01*
X133952438Y-70538095D02*
X134000057Y-70585714D01*
X134000057Y-70585714D02*
X134095295Y-70633333D01*
X134095295Y-70633333D02*
X134238152Y-70633333D01*
X134238152Y-70633333D02*
X134333390Y-70585714D01*
X134333390Y-70585714D02*
X134381009Y-70538095D01*
X134381009Y-70538095D02*
X134428628Y-70442857D01*
X134428628Y-70442857D02*
X134428628Y-70061905D01*
X134238152Y-71490476D02*
X134904819Y-71490476D01*
X133857200Y-71252381D02*
X134571485Y-71014286D01*
X134571485Y-71014286D02*
X134571485Y-71633333D01*
D11*
X134539762Y-65274318D02*
X134539762Y-64004318D01*
X133209285Y-65153365D02*
X133269761Y-65213842D01*
X133269761Y-65213842D02*
X133451190Y-65274318D01*
X133451190Y-65274318D02*
X133572142Y-65274318D01*
X133572142Y-65274318D02*
X133753571Y-65213842D01*
X133753571Y-65213842D02*
X133874523Y-65092889D01*
X133874523Y-65092889D02*
X133935000Y-64971937D01*
X133935000Y-64971937D02*
X133995476Y-64730032D01*
X133995476Y-64730032D02*
X133995476Y-64548603D01*
X133995476Y-64548603D02*
X133935000Y-64306699D01*
X133935000Y-64306699D02*
X133874523Y-64185746D01*
X133874523Y-64185746D02*
X133753571Y-64064794D01*
X133753571Y-64064794D02*
X133572142Y-64004318D01*
X133572142Y-64004318D02*
X133451190Y-64004318D01*
X133451190Y-64004318D02*
X133269761Y-64064794D01*
X133269761Y-64064794D02*
X133209285Y-64125270D01*
X131999761Y-65274318D02*
X132725476Y-65274318D01*
X132362619Y-65274318D02*
X132362619Y-64004318D01*
X132362619Y-64004318D02*
X132483571Y-64185746D01*
X132483571Y-64185746D02*
X132604523Y-64306699D01*
X132604523Y-64306699D02*
X132725476Y-64367175D01*
D12*
%TO.C,U1*%
X133900000Y-83956500D02*
G75*
G02*
X133700000Y-83956500I-100000J0D01*
G01*
X133700000Y-83956500D02*
G75*
G02*
X133900000Y-83956500I100000J0D01*
G01*
D13*
%TO.C,J1*%
X133880000Y-94345000D02*
X131120000Y-94345000D01*
X131120000Y-91695000D02*
X131120000Y-94345000D01*
X133880000Y-91695000D02*
X133880000Y-94345000D01*
X133880000Y-91695000D02*
X131120000Y-91695000D01*
X133880000Y-90425000D02*
X133880000Y-89045000D01*
X133880000Y-89045000D02*
X132500000Y-89045000D01*
%TO.C,C10*%
X135625000Y-88940113D02*
X135625000Y-89440113D01*
X135375000Y-89190113D02*
X135875000Y-89190113D01*
X134520000Y-91744888D02*
X136060000Y-91744888D01*
X138140000Y-91744888D02*
X139680000Y-91744888D01*
X134520000Y-91784888D02*
X136060000Y-91784888D01*
X138140000Y-91784888D02*
X139680000Y-91784888D01*
X134521000Y-91824888D02*
X136060000Y-91824888D01*
X138140000Y-91824888D02*
X139679000Y-91824888D01*
X134523000Y-91864888D02*
X136060000Y-91864888D01*
X138140000Y-91864888D02*
X139677000Y-91864888D01*
X134525000Y-91904888D02*
X136060000Y-91904888D01*
X138140000Y-91904888D02*
X139675000Y-91904888D01*
X134528000Y-91944888D02*
X136060000Y-91944888D01*
X138140000Y-91944888D02*
X139672000Y-91944888D01*
X134531000Y-91984888D02*
X136060000Y-91984888D01*
X138140000Y-91984888D02*
X139669000Y-91984888D01*
X134535000Y-92024888D02*
X136060000Y-92024888D01*
X138140000Y-92024888D02*
X139665000Y-92024888D01*
X134540000Y-92064888D02*
X136060000Y-92064888D01*
X138140000Y-92064888D02*
X139660000Y-92064888D01*
X134545000Y-92104888D02*
X136060000Y-92104888D01*
X138140000Y-92104888D02*
X139655000Y-92104888D01*
X134551000Y-92144888D02*
X136060000Y-92144888D01*
X138140000Y-92144888D02*
X139649000Y-92144888D01*
X134557000Y-92184888D02*
X136060000Y-92184888D01*
X138140000Y-92184888D02*
X139643000Y-92184888D01*
X134564000Y-92224888D02*
X136060000Y-92224888D01*
X138140000Y-92224888D02*
X139636000Y-92224888D01*
X134572000Y-92264888D02*
X136060000Y-92264888D01*
X138140000Y-92264888D02*
X139628000Y-92264888D01*
X134581000Y-92304888D02*
X136060000Y-92304888D01*
X138140000Y-92304888D02*
X139619000Y-92304888D01*
X134590000Y-92344888D02*
X136060000Y-92344888D01*
X138140000Y-92344888D02*
X139610000Y-92344888D01*
X134599000Y-92384888D02*
X136060000Y-92384888D01*
X138140000Y-92384888D02*
X139601000Y-92384888D01*
X134610000Y-92424888D02*
X136060000Y-92424888D01*
X138140000Y-92424888D02*
X139590000Y-92424888D01*
X134621000Y-92464888D02*
X136060000Y-92464888D01*
X138140000Y-92464888D02*
X139579000Y-92464888D01*
X134633000Y-92504888D02*
X136060000Y-92504888D01*
X138140000Y-92504888D02*
X139567000Y-92504888D01*
X134645000Y-92544888D02*
X136060000Y-92544888D01*
X138140000Y-92544888D02*
X139555000Y-92544888D01*
X134658000Y-92584888D02*
X136060000Y-92584888D01*
X138140000Y-92584888D02*
X139542000Y-92584888D01*
X134672000Y-92624888D02*
X136060000Y-92624888D01*
X138140000Y-92624888D02*
X139528000Y-92624888D01*
X134687000Y-92664888D02*
X136060000Y-92664888D01*
X138140000Y-92664888D02*
X139513000Y-92664888D01*
X134702000Y-92704888D02*
X136060000Y-92704888D01*
X138140000Y-92704888D02*
X139498000Y-92704888D01*
X134718000Y-92744888D02*
X136060000Y-92744888D01*
X138140000Y-92744888D02*
X139482000Y-92744888D01*
X134735000Y-92784888D02*
X136060000Y-92784888D01*
X138140000Y-92784888D02*
X139465000Y-92784888D01*
X134753000Y-92824888D02*
X136060000Y-92824888D01*
X138140000Y-92824888D02*
X139447000Y-92824888D01*
X134771000Y-92864888D02*
X136060000Y-92864888D01*
X138140000Y-92864888D02*
X139429000Y-92864888D01*
X134791000Y-92904888D02*
X136060000Y-92904888D01*
X138140000Y-92904888D02*
X139409000Y-92904888D01*
X134811000Y-92944888D02*
X136060000Y-92944888D01*
X138140000Y-92944888D02*
X139389000Y-92944888D01*
X134832000Y-92984888D02*
X136060000Y-92984888D01*
X138140000Y-92984888D02*
X139368000Y-92984888D01*
X134854000Y-93024888D02*
X136060000Y-93024888D01*
X138140000Y-93024888D02*
X139346000Y-93024888D01*
X134877000Y-93064888D02*
X136060000Y-93064888D01*
X138140000Y-93064888D02*
X139323000Y-93064888D01*
X134901000Y-93104888D02*
X136060000Y-93104888D01*
X138140000Y-93104888D02*
X139299000Y-93104888D01*
X134925000Y-93144888D02*
X136060000Y-93144888D01*
X138140000Y-93144888D02*
X139275000Y-93144888D01*
X134951000Y-93184888D02*
X136060000Y-93184888D01*
X138140000Y-93184888D02*
X139249000Y-93184888D01*
X134978000Y-93224888D02*
X136060000Y-93224888D01*
X138140000Y-93224888D02*
X139222000Y-93224888D01*
X135006000Y-93264888D02*
X136060000Y-93264888D01*
X138140000Y-93264888D02*
X139194000Y-93264888D01*
X135035000Y-93304888D02*
X136060000Y-93304888D01*
X138140000Y-93304888D02*
X139165000Y-93304888D01*
X135065000Y-93344888D02*
X136060000Y-93344888D01*
X138140000Y-93344888D02*
X139135000Y-93344888D01*
X135097000Y-93384888D02*
X136060000Y-93384888D01*
X138140000Y-93384888D02*
X139103000Y-93384888D01*
X135130000Y-93424888D02*
X136060000Y-93424888D01*
X138140000Y-93424888D02*
X139070000Y-93424888D01*
X135164000Y-93464888D02*
X136060000Y-93464888D01*
X138140000Y-93464888D02*
X139036000Y-93464888D01*
X135199000Y-93504888D02*
X136060000Y-93504888D01*
X138140000Y-93504888D02*
X139001000Y-93504888D01*
X135236000Y-93544888D02*
X136060000Y-93544888D01*
X138140000Y-93544888D02*
X138964000Y-93544888D01*
X135275000Y-93584888D02*
X136060000Y-93584888D01*
X138140000Y-93584888D02*
X138925000Y-93584888D01*
X135315000Y-93624888D02*
X136060000Y-93624888D01*
X138140000Y-93624888D02*
X138885000Y-93624888D01*
X135357000Y-93664888D02*
X136060000Y-93664888D01*
X138140000Y-93664888D02*
X138843000Y-93664888D01*
X135401000Y-93704888D02*
X136060000Y-93704888D01*
X138140000Y-93704888D02*
X138799000Y-93704888D01*
X135448000Y-93744888D02*
X136060000Y-93744888D01*
X138140000Y-93744888D02*
X138752000Y-93744888D01*
X135496000Y-93784888D02*
X138704000Y-93784888D01*
X135547000Y-93824888D02*
X138653000Y-93824888D01*
X135601000Y-93864888D02*
X138599000Y-93864888D01*
X135657000Y-93904888D02*
X138543000Y-93904888D01*
X135717000Y-93944888D02*
X138483000Y-93944888D01*
X135781000Y-93984888D02*
X138419000Y-93984888D01*
X135849000Y-94024888D02*
X138351000Y-94024888D01*
X135923000Y-94064888D02*
X138277000Y-94064888D01*
X136002000Y-94104888D02*
X138198000Y-94104888D01*
X136089000Y-94144888D02*
X138111000Y-94144888D01*
X136186000Y-94184888D02*
X138014000Y-94184888D01*
X136295000Y-94224888D02*
X137905000Y-94224888D01*
X136423000Y-94264888D02*
X137777000Y-94264888D01*
X136583000Y-94304888D02*
X137617000Y-94304888D01*
X136817000Y-94344888D02*
X137383000Y-94344888D01*
X139720000Y-91744888D02*
G75*
G02*
X134480000Y-91744888I-2620000J0D01*
G01*
X134480000Y-91744888D02*
G75*
G02*
X139720000Y-91744888I2620000J0D01*
G01*
%TO.C,R1*%
X142632562Y-66149564D02*
X142632562Y-65695436D01*
X144102562Y-66149564D02*
X144102562Y-65695436D01*
%TO.C,C3*%
X136935000Y-66153752D02*
X136935000Y-65631248D01*
X135465000Y-66153752D02*
X135465000Y-65631248D01*
%TO.C,D3*%
X142120000Y-74455000D02*
X144880000Y-74455000D01*
X142120000Y-77105000D02*
X142120000Y-74455000D01*
X142120000Y-77105000D02*
X144880000Y-77105000D01*
X142120000Y-78375000D02*
X142120000Y-79755000D01*
X142120000Y-79755000D02*
X143500000Y-79755000D01*
X144880000Y-77105000D02*
X144880000Y-74455000D01*
%TO.C,R2*%
X142765000Y-70572936D02*
X142765000Y-71027064D01*
X144235000Y-70572936D02*
X144235000Y-71027064D01*
%TO.C,D2*%
X138420000Y-74455000D02*
X141180000Y-74455000D01*
X138420000Y-77105000D02*
X138420000Y-74455000D01*
X138420000Y-77105000D02*
X141180000Y-77105000D01*
X138420000Y-78375000D02*
X138420000Y-79755000D01*
X138420000Y-79755000D02*
X139800000Y-79755000D01*
X141180000Y-77105000D02*
X141180000Y-74455000D01*
%TO.C,R3*%
X139065000Y-70572936D02*
X139065000Y-71027064D01*
X140535000Y-70572936D02*
X140535000Y-71027064D01*
%TO.C,D1*%
X134720000Y-74455000D02*
X137480000Y-74455000D01*
X134720000Y-77105000D02*
X134720000Y-74455000D01*
X134720000Y-77105000D02*
X137480000Y-77105000D01*
X134720000Y-78375000D02*
X134720000Y-79755000D01*
X134720000Y-79755000D02*
X136100000Y-79755000D01*
X137480000Y-77105000D02*
X137480000Y-74455000D01*
%TO.C,R4*%
X135365000Y-70572936D02*
X135365000Y-71027064D01*
X136835000Y-70572936D02*
X136835000Y-71027064D01*
D14*
%TO.C,IC1*%
X137800000Y-67372500D02*
X137800000Y-67372500D01*
X137800000Y-67472500D02*
X137800000Y-67472500D01*
D12*
X138300000Y-63672500D02*
X141300000Y-63672500D01*
X138300000Y-65572500D02*
X138300000Y-63672500D01*
X139400000Y-67672500D02*
X140200000Y-67672500D01*
X141300000Y-63672500D02*
X141300000Y-65572500D01*
D14*
X137800000Y-67372500D02*
G75*
G02*
X137800000Y-67472500I0J-50000D01*
G01*
X137800000Y-67472500D02*
G75*
G02*
X137800000Y-67372500I0J50000D01*
G01*
%TD*%
%LPC*%
D15*
%TO.C,U1*%
X147420000Y-83956500D03*
X147420000Y-81416500D03*
X147420000Y-78876500D03*
X147420000Y-76336500D03*
X147420000Y-73796500D03*
X147420000Y-71256500D03*
X147420000Y-68716500D03*
X132180000Y-68716500D03*
X132180000Y-71256500D03*
X132180000Y-73796500D03*
X132180000Y-76336500D03*
X132180000Y-78876500D03*
X132180000Y-81416500D03*
D16*
X132180000Y-83956500D03*
%TD*%
D17*
%TO.C,J1*%
X132500000Y-92965000D03*
D18*
X132500000Y-90425000D03*
%TD*%
D19*
%TO.C,C10*%
X137100000Y-90744888D03*
D20*
X137100000Y-92744888D03*
%TD*%
D21*
%TO.C,R1*%
X143367562Y-66922500D03*
X143367562Y-64922500D03*
%TD*%
D22*
%TO.C,C3*%
X136200000Y-64855000D03*
X136200000Y-66930000D03*
%TD*%
D18*
%TO.C,D3*%
X143500000Y-78375000D03*
D17*
X143500000Y-75835000D03*
%TD*%
D23*
%TO.C,R2*%
X143500000Y-69800000D03*
X143500000Y-71800000D03*
%TD*%
D18*
%TO.C,D2*%
X139800000Y-78375000D03*
D17*
X139800000Y-75835000D03*
%TD*%
D23*
%TO.C,R3*%
X139800000Y-69800000D03*
X139800000Y-71800000D03*
%TD*%
D18*
%TO.C,D1*%
X136100000Y-78375000D03*
D17*
X136100000Y-75835000D03*
%TD*%
D23*
%TO.C,R4*%
X136100000Y-69800000D03*
X136100000Y-71800000D03*
%TD*%
D24*
%TO.C,IC1*%
X138725000Y-67347500D03*
X138725000Y-66697500D03*
X138725000Y-66047500D03*
D25*
X139800000Y-64772500D03*
D24*
X140875000Y-66047500D03*
X140875000Y-66697500D03*
X140875000Y-67347500D03*
%TD*%
%LPD*%
M02*
