%TF.GenerationSoftware,KiCad,Pcbnew,9.0.4*%
%TF.CreationDate,2025-10-26T13:26:50-07:00*%
%TF.ProjectId,db-collector,64622d63-6f6c-46c6-9563-746f722e6b69,rev?*%
%TF.SameCoordinates,Original*%
%TF.FileFunction,Drillmap*%
%TF.FilePolarity,Positive*%
%FSLAX45Y45*%
G04 Gerber Fmt 4.5, Leading zero omitted, Abs format (unit mm)*
G04 Created by KiCad (PCBNEW 9.0.4) date 2025-10-26 13:26:50*
%MOMM*%
%LPD*%
G01*
G04 APERTURE LIST*
%ADD10C,0.050000*%
%ADD11C,0.200000*%
G04 APERTURE END LIST*
D10*
X13066000Y-6267250D02*
X14894000Y-6267250D01*
X14894000Y-9474586D01*
X13066000Y-9474586D01*
X13066000Y-6267250D01*
D11*
X13324277Y-9788570D02*
X13324277Y-9588570D01*
X13324277Y-9588570D02*
X13371896Y-9588570D01*
X13371896Y-9588570D02*
X13400467Y-9598094D01*
X13400467Y-9598094D02*
X13419515Y-9617141D01*
X13419515Y-9617141D02*
X13429039Y-9636189D01*
X13429039Y-9636189D02*
X13438562Y-9674284D01*
X13438562Y-9674284D02*
X13438562Y-9702855D01*
X13438562Y-9702855D02*
X13429039Y-9740951D01*
X13429039Y-9740951D02*
X13419515Y-9759998D01*
X13419515Y-9759998D02*
X13400467Y-9779046D01*
X13400467Y-9779046D02*
X13371896Y-9788570D01*
X13371896Y-9788570D02*
X13324277Y-9788570D01*
X13524277Y-9788570D02*
X13524277Y-9655236D01*
X13524277Y-9693332D02*
X13533801Y-9674284D01*
X13533801Y-9674284D02*
X13543324Y-9664760D01*
X13543324Y-9664760D02*
X13562372Y-9655236D01*
X13562372Y-9655236D02*
X13581420Y-9655236D01*
X13648086Y-9788570D02*
X13648086Y-9655236D01*
X13648086Y-9588570D02*
X13638562Y-9598094D01*
X13638562Y-9598094D02*
X13648086Y-9607617D01*
X13648086Y-9607617D02*
X13657610Y-9598094D01*
X13657610Y-9598094D02*
X13648086Y-9588570D01*
X13648086Y-9588570D02*
X13648086Y-9607617D01*
X13771896Y-9788570D02*
X13752848Y-9779046D01*
X13752848Y-9779046D02*
X13743324Y-9759998D01*
X13743324Y-9759998D02*
X13743324Y-9588570D01*
X13876658Y-9788570D02*
X13857610Y-9779046D01*
X13857610Y-9779046D02*
X13848086Y-9759998D01*
X13848086Y-9759998D02*
X13848086Y-9588570D01*
X14105229Y-9788570D02*
X14105229Y-9588570D01*
X14105229Y-9588570D02*
X14171896Y-9731427D01*
X14171896Y-9731427D02*
X14238562Y-9588570D01*
X14238562Y-9588570D02*
X14238562Y-9788570D01*
X14419515Y-9788570D02*
X14419515Y-9683808D01*
X14419515Y-9683808D02*
X14409991Y-9664760D01*
X14409991Y-9664760D02*
X14390943Y-9655236D01*
X14390943Y-9655236D02*
X14352848Y-9655236D01*
X14352848Y-9655236D02*
X14333801Y-9664760D01*
X14419515Y-9779046D02*
X14400467Y-9788570D01*
X14400467Y-9788570D02*
X14352848Y-9788570D01*
X14352848Y-9788570D02*
X14333801Y-9779046D01*
X14333801Y-9779046D02*
X14324277Y-9759998D01*
X14324277Y-9759998D02*
X14324277Y-9740951D01*
X14324277Y-9740951D02*
X14333801Y-9721903D01*
X14333801Y-9721903D02*
X14352848Y-9712379D01*
X14352848Y-9712379D02*
X14400467Y-9712379D01*
X14400467Y-9712379D02*
X14419515Y-9702855D01*
X14514753Y-9655236D02*
X14514753Y-9855236D01*
X14514753Y-9664760D02*
X14533801Y-9655236D01*
X14533801Y-9655236D02*
X14571896Y-9655236D01*
X14571896Y-9655236D02*
X14590943Y-9664760D01*
X14590943Y-9664760D02*
X14600467Y-9674284D01*
X14600467Y-9674284D02*
X14609991Y-9693332D01*
X14609991Y-9693332D02*
X14609991Y-9750474D01*
X14609991Y-9750474D02*
X14600467Y-9769522D01*
X14600467Y-9769522D02*
X14590943Y-9779046D01*
X14590943Y-9779046D02*
X14571896Y-9788570D01*
X14571896Y-9788570D02*
X14533801Y-9788570D01*
X14533801Y-9788570D02*
X14514753Y-9779046D01*
X14695705Y-9769522D02*
X14705229Y-9779046D01*
X14705229Y-9779046D02*
X14695705Y-9788570D01*
X14695705Y-9788570D02*
X14686182Y-9779046D01*
X14686182Y-9779046D02*
X14695705Y-9769522D01*
X14695705Y-9769522D02*
X14695705Y-9788570D01*
X14695705Y-9664760D02*
X14705229Y-9674284D01*
X14705229Y-9674284D02*
X14695705Y-9683808D01*
X14695705Y-9683808D02*
X14686182Y-9674284D01*
X14686182Y-9674284D02*
X14695705Y-9664760D01*
X14695705Y-9664760D02*
X14695705Y-9683808D01*
M02*
