%TF.GenerationSoftware,KiCad,Pcbnew,9.0.4*%
%TF.CreationDate,2025-10-26T13:38:01-07:00*%
%TF.ProjectId,db-collector,64622d63-6f6c-46c6-9563-746f722e6b69,rev?*%
%TF.SameCoordinates,Original*%
%TF.FileFunction,Legend,Top*%
%TF.FilePolarity,Positive*%
%FSLAX46Y46*%
G04 Gerber Fmt 4.6, Leading zero omitted, Abs format (unit mm)*
G04 Created by KiCad (PCBNEW 9.0.4) date 2025-10-26 13:38:01*
%MOMM*%
%LPD*%
G01*
G04 APERTURE LIST*
G04 Aperture macros list*
%AMRoundRect*
0 Rectangle with rounded corners*
0 $1 Rounding radius*
0 $2 $3 $4 $5 $6 $7 $8 $9 X,Y pos of 4 corners*
0 Add a 4 corners polygon primitive as box body*
4,1,4,$2,$3,$4,$5,$6,$7,$8,$9,$2,$3,0*
0 Add four circle primitives for the rounded corners*
1,1,$1+$1,$2,$3*
1,1,$1+$1,$4,$5*
1,1,$1+$1,$6,$7*
1,1,$1+$1,$8,$9*
0 Add four rect primitives between the rounded corners*
20,1,$1+$1,$2,$3,$4,$5,0*
20,1,$1+$1,$4,$5,$6,$7,0*
20,1,$1+$1,$6,$7,$8,$9,0*
20,1,$1+$1,$8,$9,$2,$3,0*%
G04 Aperture macros list end*
%ADD10C,0.150000*%
%ADD11C,0.254000*%
%ADD12C,0.100000*%
%ADD13C,0.120000*%
%ADD14C,1.562000*%
%ADD15RoundRect,0.102000X-0.679000X-0.679000X0.679000X-0.679000X0.679000X0.679000X-0.679000X0.679000X0*%
%ADD16R,1.100000X0.600000*%
%ADD17R,0.975000X1.700000*%
%ADD18RoundRect,0.250000X-0.475000X0.337500X-0.475000X-0.337500X0.475000X-0.337500X0.475000X0.337500X0*%
%ADD19RoundRect,0.250000X-0.337500X-0.475000X0.337500X-0.475000X0.337500X0.475000X-0.337500X0.475000X0*%
%ADD20RoundRect,0.250000X0.337500X0.475000X-0.337500X0.475000X-0.337500X-0.475000X0.337500X-0.475000X0*%
%ADD21C,1.700000*%
%ADD22R,1.700000X1.700000*%
%ADD23RoundRect,0.250000X-0.550000X0.550000X-0.550000X-0.550000X0.550000X-0.550000X0.550000X0.550000X0*%
%ADD24C,1.600000*%
%ADD25C,1.650000*%
G04 APERTURE END LIST*
D10*
X131089160Y-86745085D02*
X131136779Y-86697466D01*
X131136779Y-86697466D02*
X131232017Y-86649847D01*
X131232017Y-86649847D02*
X131470112Y-86649847D01*
X131470112Y-86649847D02*
X131565350Y-86697466D01*
X131565350Y-86697466D02*
X131612969Y-86745085D01*
X131612969Y-86745085D02*
X131660588Y-86840323D01*
X131660588Y-86840323D02*
X131660588Y-86935561D01*
X131660588Y-86935561D02*
X131612969Y-87078418D01*
X131612969Y-87078418D02*
X131041541Y-87649847D01*
X131041541Y-87649847D02*
X131660588Y-87649847D01*
X132279636Y-86649847D02*
X132374874Y-86649847D01*
X132374874Y-86649847D02*
X132470112Y-86697466D01*
X132470112Y-86697466D02*
X132517731Y-86745085D01*
X132517731Y-86745085D02*
X132565350Y-86840323D01*
X132565350Y-86840323D02*
X132612969Y-87030799D01*
X132612969Y-87030799D02*
X132612969Y-87268894D01*
X132612969Y-87268894D02*
X132565350Y-87459370D01*
X132565350Y-87459370D02*
X132517731Y-87554608D01*
X132517731Y-87554608D02*
X132470112Y-87602228D01*
X132470112Y-87602228D02*
X132374874Y-87649847D01*
X132374874Y-87649847D02*
X132279636Y-87649847D01*
X132279636Y-87649847D02*
X132184398Y-87602228D01*
X132184398Y-87602228D02*
X132136779Y-87554608D01*
X132136779Y-87554608D02*
X132089160Y-87459370D01*
X132089160Y-87459370D02*
X132041541Y-87268894D01*
X132041541Y-87268894D02*
X132041541Y-87030799D01*
X132041541Y-87030799D02*
X132089160Y-86840323D01*
X132089160Y-86840323D02*
X132136779Y-86745085D01*
X132136779Y-86745085D02*
X132184398Y-86697466D01*
X132184398Y-86697466D02*
X132279636Y-86649847D01*
X132993922Y-86745085D02*
X133041541Y-86697466D01*
X133041541Y-86697466D02*
X133136779Y-86649847D01*
X133136779Y-86649847D02*
X133374874Y-86649847D01*
X133374874Y-86649847D02*
X133470112Y-86697466D01*
X133470112Y-86697466D02*
X133517731Y-86745085D01*
X133517731Y-86745085D02*
X133565350Y-86840323D01*
X133565350Y-86840323D02*
X133565350Y-86935561D01*
X133565350Y-86935561D02*
X133517731Y-87078418D01*
X133517731Y-87078418D02*
X132946303Y-87649847D01*
X132946303Y-87649847D02*
X133565350Y-87649847D01*
X134470112Y-86649847D02*
X133993922Y-86649847D01*
X133993922Y-86649847D02*
X133946303Y-87126037D01*
X133946303Y-87126037D02*
X133993922Y-87078418D01*
X133993922Y-87078418D02*
X134089160Y-87030799D01*
X134089160Y-87030799D02*
X134327255Y-87030799D01*
X134327255Y-87030799D02*
X134422493Y-87078418D01*
X134422493Y-87078418D02*
X134470112Y-87126037D01*
X134470112Y-87126037D02*
X134517731Y-87221275D01*
X134517731Y-87221275D02*
X134517731Y-87459370D01*
X134517731Y-87459370D02*
X134470112Y-87554608D01*
X134470112Y-87554608D02*
X134422493Y-87602228D01*
X134422493Y-87602228D02*
X134327255Y-87649847D01*
X134327255Y-87649847D02*
X134089160Y-87649847D01*
X134089160Y-87649847D02*
X133993922Y-87602228D01*
X133993922Y-87602228D02*
X133946303Y-87554608D01*
X134946303Y-87268894D02*
X135708208Y-87268894D01*
X136708207Y-87649847D02*
X136136779Y-87649847D01*
X136422493Y-87649847D02*
X136422493Y-86649847D01*
X136422493Y-86649847D02*
X136327255Y-86792704D01*
X136327255Y-86792704D02*
X136232017Y-86887942D01*
X136232017Y-86887942D02*
X136136779Y-86935561D01*
X137327255Y-86649847D02*
X137422493Y-86649847D01*
X137422493Y-86649847D02*
X137517731Y-86697466D01*
X137517731Y-86697466D02*
X137565350Y-86745085D01*
X137565350Y-86745085D02*
X137612969Y-86840323D01*
X137612969Y-86840323D02*
X137660588Y-87030799D01*
X137660588Y-87030799D02*
X137660588Y-87268894D01*
X137660588Y-87268894D02*
X137612969Y-87459370D01*
X137612969Y-87459370D02*
X137565350Y-87554608D01*
X137565350Y-87554608D02*
X137517731Y-87602228D01*
X137517731Y-87602228D02*
X137422493Y-87649847D01*
X137422493Y-87649847D02*
X137327255Y-87649847D01*
X137327255Y-87649847D02*
X137232017Y-87602228D01*
X137232017Y-87602228D02*
X137184398Y-87554608D01*
X137184398Y-87554608D02*
X137136779Y-87459370D01*
X137136779Y-87459370D02*
X137089160Y-87268894D01*
X137089160Y-87268894D02*
X137089160Y-87030799D01*
X137089160Y-87030799D02*
X137136779Y-86840323D01*
X137136779Y-86840323D02*
X137184398Y-86745085D01*
X137184398Y-86745085D02*
X137232017Y-86697466D01*
X137232017Y-86697466D02*
X137327255Y-86649847D01*
X138089160Y-87268894D02*
X138851065Y-87268894D01*
X139279636Y-86745085D02*
X139327255Y-86697466D01*
X139327255Y-86697466D02*
X139422493Y-86649847D01*
X139422493Y-86649847D02*
X139660588Y-86649847D01*
X139660588Y-86649847D02*
X139755826Y-86697466D01*
X139755826Y-86697466D02*
X139803445Y-86745085D01*
X139803445Y-86745085D02*
X139851064Y-86840323D01*
X139851064Y-86840323D02*
X139851064Y-86935561D01*
X139851064Y-86935561D02*
X139803445Y-87078418D01*
X139803445Y-87078418D02*
X139232017Y-87649847D01*
X139232017Y-87649847D02*
X139851064Y-87649847D01*
X140708207Y-86649847D02*
X140517731Y-86649847D01*
X140517731Y-86649847D02*
X140422493Y-86697466D01*
X140422493Y-86697466D02*
X140374874Y-86745085D01*
X140374874Y-86745085D02*
X140279636Y-86887942D01*
X140279636Y-86887942D02*
X140232017Y-87078418D01*
X140232017Y-87078418D02*
X140232017Y-87459370D01*
X140232017Y-87459370D02*
X140279636Y-87554608D01*
X140279636Y-87554608D02*
X140327255Y-87602228D01*
X140327255Y-87602228D02*
X140422493Y-87649847D01*
X140422493Y-87649847D02*
X140612969Y-87649847D01*
X140612969Y-87649847D02*
X140708207Y-87602228D01*
X140708207Y-87602228D02*
X140755826Y-87554608D01*
X140755826Y-87554608D02*
X140803445Y-87459370D01*
X140803445Y-87459370D02*
X140803445Y-87221275D01*
X140803445Y-87221275D02*
X140755826Y-87126037D01*
X140755826Y-87126037D02*
X140708207Y-87078418D01*
X140708207Y-87078418D02*
X140612969Y-87030799D01*
X140612969Y-87030799D02*
X140422493Y-87030799D01*
X140422493Y-87030799D02*
X140327255Y-87078418D01*
X140327255Y-87078418D02*
X140279636Y-87126037D01*
X140279636Y-87126037D02*
X140232017Y-87221275D01*
X131041541Y-88593124D02*
X131279636Y-89259791D01*
X131279636Y-89259791D02*
X131517731Y-88593124D01*
X132422493Y-89259791D02*
X131851065Y-89259791D01*
X132136779Y-89259791D02*
X132136779Y-88259791D01*
X132136779Y-88259791D02*
X132041541Y-88402648D01*
X132041541Y-88402648D02*
X131946303Y-88497886D01*
X131946303Y-88497886D02*
X131851065Y-88545505D01*
X132851065Y-89164552D02*
X132898684Y-89212172D01*
X132898684Y-89212172D02*
X132851065Y-89259791D01*
X132851065Y-89259791D02*
X132803446Y-89212172D01*
X132803446Y-89212172D02*
X132851065Y-89164552D01*
X132851065Y-89164552D02*
X132851065Y-89259791D01*
X133517731Y-88259791D02*
X133612969Y-88259791D01*
X133612969Y-88259791D02*
X133708207Y-88307410D01*
X133708207Y-88307410D02*
X133755826Y-88355029D01*
X133755826Y-88355029D02*
X133803445Y-88450267D01*
X133803445Y-88450267D02*
X133851064Y-88640743D01*
X133851064Y-88640743D02*
X133851064Y-88878838D01*
X133851064Y-88878838D02*
X133803445Y-89069314D01*
X133803445Y-89069314D02*
X133755826Y-89164552D01*
X133755826Y-89164552D02*
X133708207Y-89212172D01*
X133708207Y-89212172D02*
X133612969Y-89259791D01*
X133612969Y-89259791D02*
X133517731Y-89259791D01*
X133517731Y-89259791D02*
X133422493Y-89212172D01*
X133422493Y-89212172D02*
X133374874Y-89164552D01*
X133374874Y-89164552D02*
X133327255Y-89069314D01*
X133327255Y-89069314D02*
X133279636Y-88878838D01*
X133279636Y-88878838D02*
X133279636Y-88640743D01*
X133279636Y-88640743D02*
X133327255Y-88450267D01*
X133327255Y-88450267D02*
X133374874Y-88355029D01*
X133374874Y-88355029D02*
X133422493Y-88307410D01*
X133422493Y-88307410D02*
X133517731Y-88259791D01*
X131038094Y-86254819D02*
X131038094Y-85254819D01*
X131038094Y-85254819D02*
X131276189Y-85254819D01*
X131276189Y-85254819D02*
X131419046Y-85302438D01*
X131419046Y-85302438D02*
X131514284Y-85397676D01*
X131514284Y-85397676D02*
X131561903Y-85492914D01*
X131561903Y-85492914D02*
X131609522Y-85683390D01*
X131609522Y-85683390D02*
X131609522Y-85826247D01*
X131609522Y-85826247D02*
X131561903Y-86016723D01*
X131561903Y-86016723D02*
X131514284Y-86111961D01*
X131514284Y-86111961D02*
X131419046Y-86207200D01*
X131419046Y-86207200D02*
X131276189Y-86254819D01*
X131276189Y-86254819D02*
X131038094Y-86254819D01*
X132371427Y-85731009D02*
X132514284Y-85778628D01*
X132514284Y-85778628D02*
X132561903Y-85826247D01*
X132561903Y-85826247D02*
X132609522Y-85921485D01*
X132609522Y-85921485D02*
X132609522Y-86064342D01*
X132609522Y-86064342D02*
X132561903Y-86159580D01*
X132561903Y-86159580D02*
X132514284Y-86207200D01*
X132514284Y-86207200D02*
X132419046Y-86254819D01*
X132419046Y-86254819D02*
X132038094Y-86254819D01*
X132038094Y-86254819D02*
X132038094Y-85254819D01*
X132038094Y-85254819D02*
X132371427Y-85254819D01*
X132371427Y-85254819D02*
X132466665Y-85302438D01*
X132466665Y-85302438D02*
X132514284Y-85350057D01*
X132514284Y-85350057D02*
X132561903Y-85445295D01*
X132561903Y-85445295D02*
X132561903Y-85540533D01*
X132561903Y-85540533D02*
X132514284Y-85635771D01*
X132514284Y-85635771D02*
X132466665Y-85683390D01*
X132466665Y-85683390D02*
X132371427Y-85731009D01*
X132371427Y-85731009D02*
X132038094Y-85731009D01*
X133038094Y-85873866D02*
X133799999Y-85873866D01*
X134847617Y-86159580D02*
X134799998Y-86207200D01*
X134799998Y-86207200D02*
X134657141Y-86254819D01*
X134657141Y-86254819D02*
X134561903Y-86254819D01*
X134561903Y-86254819D02*
X134419046Y-86207200D01*
X134419046Y-86207200D02*
X134323808Y-86111961D01*
X134323808Y-86111961D02*
X134276189Y-86016723D01*
X134276189Y-86016723D02*
X134228570Y-85826247D01*
X134228570Y-85826247D02*
X134228570Y-85683390D01*
X134228570Y-85683390D02*
X134276189Y-85492914D01*
X134276189Y-85492914D02*
X134323808Y-85397676D01*
X134323808Y-85397676D02*
X134419046Y-85302438D01*
X134419046Y-85302438D02*
X134561903Y-85254819D01*
X134561903Y-85254819D02*
X134657141Y-85254819D01*
X134657141Y-85254819D02*
X134799998Y-85302438D01*
X134799998Y-85302438D02*
X134847617Y-85350057D01*
X135419046Y-86254819D02*
X135323808Y-86207200D01*
X135323808Y-86207200D02*
X135276189Y-86159580D01*
X135276189Y-86159580D02*
X135228570Y-86064342D01*
X135228570Y-86064342D02*
X135228570Y-85778628D01*
X135228570Y-85778628D02*
X135276189Y-85683390D01*
X135276189Y-85683390D02*
X135323808Y-85635771D01*
X135323808Y-85635771D02*
X135419046Y-85588152D01*
X135419046Y-85588152D02*
X135561903Y-85588152D01*
X135561903Y-85588152D02*
X135657141Y-85635771D01*
X135657141Y-85635771D02*
X135704760Y-85683390D01*
X135704760Y-85683390D02*
X135752379Y-85778628D01*
X135752379Y-85778628D02*
X135752379Y-86064342D01*
X135752379Y-86064342D02*
X135704760Y-86159580D01*
X135704760Y-86159580D02*
X135657141Y-86207200D01*
X135657141Y-86207200D02*
X135561903Y-86254819D01*
X135561903Y-86254819D02*
X135419046Y-86254819D01*
X136323808Y-86254819D02*
X136228570Y-86207200D01*
X136228570Y-86207200D02*
X136180951Y-86111961D01*
X136180951Y-86111961D02*
X136180951Y-85254819D01*
X136847618Y-86254819D02*
X136752380Y-86207200D01*
X136752380Y-86207200D02*
X136704761Y-86111961D01*
X136704761Y-86111961D02*
X136704761Y-85254819D01*
X137609523Y-86207200D02*
X137514285Y-86254819D01*
X137514285Y-86254819D02*
X137323809Y-86254819D01*
X137323809Y-86254819D02*
X137228571Y-86207200D01*
X137228571Y-86207200D02*
X137180952Y-86111961D01*
X137180952Y-86111961D02*
X137180952Y-85731009D01*
X137180952Y-85731009D02*
X137228571Y-85635771D01*
X137228571Y-85635771D02*
X137323809Y-85588152D01*
X137323809Y-85588152D02*
X137514285Y-85588152D01*
X137514285Y-85588152D02*
X137609523Y-85635771D01*
X137609523Y-85635771D02*
X137657142Y-85731009D01*
X137657142Y-85731009D02*
X137657142Y-85826247D01*
X137657142Y-85826247D02*
X137180952Y-85921485D01*
X138514285Y-86207200D02*
X138419047Y-86254819D01*
X138419047Y-86254819D02*
X138228571Y-86254819D01*
X138228571Y-86254819D02*
X138133333Y-86207200D01*
X138133333Y-86207200D02*
X138085714Y-86159580D01*
X138085714Y-86159580D02*
X138038095Y-86064342D01*
X138038095Y-86064342D02*
X138038095Y-85778628D01*
X138038095Y-85778628D02*
X138085714Y-85683390D01*
X138085714Y-85683390D02*
X138133333Y-85635771D01*
X138133333Y-85635771D02*
X138228571Y-85588152D01*
X138228571Y-85588152D02*
X138419047Y-85588152D01*
X138419047Y-85588152D02*
X138514285Y-85635771D01*
X138800000Y-85588152D02*
X139180952Y-85588152D01*
X138942857Y-85254819D02*
X138942857Y-86111961D01*
X138942857Y-86111961D02*
X138990476Y-86207200D01*
X138990476Y-86207200D02*
X139085714Y-86254819D01*
X139085714Y-86254819D02*
X139180952Y-86254819D01*
X139657143Y-86254819D02*
X139561905Y-86207200D01*
X139561905Y-86207200D02*
X139514286Y-86159580D01*
X139514286Y-86159580D02*
X139466667Y-86064342D01*
X139466667Y-86064342D02*
X139466667Y-85778628D01*
X139466667Y-85778628D02*
X139514286Y-85683390D01*
X139514286Y-85683390D02*
X139561905Y-85635771D01*
X139561905Y-85635771D02*
X139657143Y-85588152D01*
X139657143Y-85588152D02*
X139800000Y-85588152D01*
X139800000Y-85588152D02*
X139895238Y-85635771D01*
X139895238Y-85635771D02*
X139942857Y-85683390D01*
X139942857Y-85683390D02*
X139990476Y-85778628D01*
X139990476Y-85778628D02*
X139990476Y-86064342D01*
X139990476Y-86064342D02*
X139942857Y-86159580D01*
X139942857Y-86159580D02*
X139895238Y-86207200D01*
X139895238Y-86207200D02*
X139800000Y-86254819D01*
X139800000Y-86254819D02*
X139657143Y-86254819D01*
X140419048Y-86254819D02*
X140419048Y-85588152D01*
X140419048Y-85778628D02*
X140466667Y-85683390D01*
X140466667Y-85683390D02*
X140514286Y-85635771D01*
X140514286Y-85635771D02*
X140609524Y-85588152D01*
X140609524Y-85588152D02*
X140704762Y-85588152D01*
D11*
X145060237Y-94374318D02*
X145060237Y-93104318D01*
X146390714Y-94253365D02*
X146330238Y-94313842D01*
X146330238Y-94313842D02*
X146148809Y-94374318D01*
X146148809Y-94374318D02*
X146027857Y-94374318D01*
X146027857Y-94374318D02*
X145846428Y-94313842D01*
X145846428Y-94313842D02*
X145725476Y-94192889D01*
X145725476Y-94192889D02*
X145664999Y-94071937D01*
X145664999Y-94071937D02*
X145604523Y-93830032D01*
X145604523Y-93830032D02*
X145604523Y-93648603D01*
X145604523Y-93648603D02*
X145664999Y-93406699D01*
X145664999Y-93406699D02*
X145725476Y-93285746D01*
X145725476Y-93285746D02*
X145846428Y-93164794D01*
X145846428Y-93164794D02*
X146027857Y-93104318D01*
X146027857Y-93104318D02*
X146148809Y-93104318D01*
X146148809Y-93104318D02*
X146330238Y-93164794D01*
X146330238Y-93164794D02*
X146390714Y-93225270D01*
X146874523Y-93225270D02*
X146934999Y-93164794D01*
X146934999Y-93164794D02*
X147055952Y-93104318D01*
X147055952Y-93104318D02*
X147358333Y-93104318D01*
X147358333Y-93104318D02*
X147479285Y-93164794D01*
X147479285Y-93164794D02*
X147539761Y-93225270D01*
X147539761Y-93225270D02*
X147600238Y-93346222D01*
X147600238Y-93346222D02*
X147600238Y-93467175D01*
X147600238Y-93467175D02*
X147539761Y-93648603D01*
X147539761Y-93648603D02*
X146814047Y-94374318D01*
X146814047Y-94374318D02*
X147600238Y-94374318D01*
D10*
X143039580Y-92066666D02*
X143087200Y-92114285D01*
X143087200Y-92114285D02*
X143134819Y-92257142D01*
X143134819Y-92257142D02*
X143134819Y-92352380D01*
X143134819Y-92352380D02*
X143087200Y-92495237D01*
X143087200Y-92495237D02*
X142991961Y-92590475D01*
X142991961Y-92590475D02*
X142896723Y-92638094D01*
X142896723Y-92638094D02*
X142706247Y-92685713D01*
X142706247Y-92685713D02*
X142563390Y-92685713D01*
X142563390Y-92685713D02*
X142372914Y-92638094D01*
X142372914Y-92638094D02*
X142277676Y-92590475D01*
X142277676Y-92590475D02*
X142182438Y-92495237D01*
X142182438Y-92495237D02*
X142134819Y-92352380D01*
X142134819Y-92352380D02*
X142134819Y-92257142D01*
X142134819Y-92257142D02*
X142182438Y-92114285D01*
X142182438Y-92114285D02*
X142230057Y-92066666D01*
X142134819Y-91209523D02*
X142134819Y-91399999D01*
X142134819Y-91399999D02*
X142182438Y-91495237D01*
X142182438Y-91495237D02*
X142230057Y-91542856D01*
X142230057Y-91542856D02*
X142372914Y-91638094D01*
X142372914Y-91638094D02*
X142563390Y-91685713D01*
X142563390Y-91685713D02*
X142944342Y-91685713D01*
X142944342Y-91685713D02*
X143039580Y-91638094D01*
X143039580Y-91638094D02*
X143087200Y-91590475D01*
X143087200Y-91590475D02*
X143134819Y-91495237D01*
X143134819Y-91495237D02*
X143134819Y-91304761D01*
X143134819Y-91304761D02*
X143087200Y-91209523D01*
X143087200Y-91209523D02*
X143039580Y-91161904D01*
X143039580Y-91161904D02*
X142944342Y-91114285D01*
X142944342Y-91114285D02*
X142706247Y-91114285D01*
X142706247Y-91114285D02*
X142611009Y-91161904D01*
X142611009Y-91161904D02*
X142563390Y-91209523D01*
X142563390Y-91209523D02*
X142515771Y-91304761D01*
X142515771Y-91304761D02*
X142515771Y-91495237D01*
X142515771Y-91495237D02*
X142563390Y-91590475D01*
X142563390Y-91590475D02*
X142611009Y-91638094D01*
X142611009Y-91638094D02*
X142706247Y-91685713D01*
X146633333Y-86679580D02*
X146585714Y-86727200D01*
X146585714Y-86727200D02*
X146442857Y-86774819D01*
X146442857Y-86774819D02*
X146347619Y-86774819D01*
X146347619Y-86774819D02*
X146204762Y-86727200D01*
X146204762Y-86727200D02*
X146109524Y-86631961D01*
X146109524Y-86631961D02*
X146061905Y-86536723D01*
X146061905Y-86536723D02*
X146014286Y-86346247D01*
X146014286Y-86346247D02*
X146014286Y-86203390D01*
X146014286Y-86203390D02*
X146061905Y-86012914D01*
X146061905Y-86012914D02*
X146109524Y-85917676D01*
X146109524Y-85917676D02*
X146204762Y-85822438D01*
X146204762Y-85822438D02*
X146347619Y-85774819D01*
X146347619Y-85774819D02*
X146442857Y-85774819D01*
X146442857Y-85774819D02*
X146585714Y-85822438D01*
X146585714Y-85822438D02*
X146633333Y-85870057D01*
X147538095Y-85774819D02*
X147061905Y-85774819D01*
X147061905Y-85774819D02*
X147014286Y-86251009D01*
X147014286Y-86251009D02*
X147061905Y-86203390D01*
X147061905Y-86203390D02*
X147157143Y-86155771D01*
X147157143Y-86155771D02*
X147395238Y-86155771D01*
X147395238Y-86155771D02*
X147490476Y-86203390D01*
X147490476Y-86203390D02*
X147538095Y-86251009D01*
X147538095Y-86251009D02*
X147585714Y-86346247D01*
X147585714Y-86346247D02*
X147585714Y-86584342D01*
X147585714Y-86584342D02*
X147538095Y-86679580D01*
X147538095Y-86679580D02*
X147490476Y-86727200D01*
X147490476Y-86727200D02*
X147395238Y-86774819D01*
X147395238Y-86774819D02*
X147157143Y-86774819D01*
X147157143Y-86774819D02*
X147061905Y-86727200D01*
X147061905Y-86727200D02*
X147014286Y-86679580D01*
X142533333Y-90039580D02*
X142485714Y-90087200D01*
X142485714Y-90087200D02*
X142342857Y-90134819D01*
X142342857Y-90134819D02*
X142247619Y-90134819D01*
X142247619Y-90134819D02*
X142104762Y-90087200D01*
X142104762Y-90087200D02*
X142009524Y-89991961D01*
X142009524Y-89991961D02*
X141961905Y-89896723D01*
X141961905Y-89896723D02*
X141914286Y-89706247D01*
X141914286Y-89706247D02*
X141914286Y-89563390D01*
X141914286Y-89563390D02*
X141961905Y-89372914D01*
X141961905Y-89372914D02*
X142009524Y-89277676D01*
X142009524Y-89277676D02*
X142104762Y-89182438D01*
X142104762Y-89182438D02*
X142247619Y-89134819D01*
X142247619Y-89134819D02*
X142342857Y-89134819D01*
X142342857Y-89134819D02*
X142485714Y-89182438D01*
X142485714Y-89182438D02*
X142533333Y-89230057D01*
X143390476Y-89468152D02*
X143390476Y-90134819D01*
X143152381Y-89087200D02*
X142914286Y-89801485D01*
X142914286Y-89801485D02*
X143533333Y-89801485D01*
X142559580Y-85266666D02*
X142607200Y-85314285D01*
X142607200Y-85314285D02*
X142654819Y-85457142D01*
X142654819Y-85457142D02*
X142654819Y-85552380D01*
X142654819Y-85552380D02*
X142607200Y-85695237D01*
X142607200Y-85695237D02*
X142511961Y-85790475D01*
X142511961Y-85790475D02*
X142416723Y-85838094D01*
X142416723Y-85838094D02*
X142226247Y-85885713D01*
X142226247Y-85885713D02*
X142083390Y-85885713D01*
X142083390Y-85885713D02*
X141892914Y-85838094D01*
X141892914Y-85838094D02*
X141797676Y-85790475D01*
X141797676Y-85790475D02*
X141702438Y-85695237D01*
X141702438Y-85695237D02*
X141654819Y-85552380D01*
X141654819Y-85552380D02*
X141654819Y-85457142D01*
X141654819Y-85457142D02*
X141702438Y-85314285D01*
X141702438Y-85314285D02*
X141750057Y-85266666D01*
X141750057Y-84885713D02*
X141702438Y-84838094D01*
X141702438Y-84838094D02*
X141654819Y-84742856D01*
X141654819Y-84742856D02*
X141654819Y-84504761D01*
X141654819Y-84504761D02*
X141702438Y-84409523D01*
X141702438Y-84409523D02*
X141750057Y-84361904D01*
X141750057Y-84361904D02*
X141845295Y-84314285D01*
X141845295Y-84314285D02*
X141940533Y-84314285D01*
X141940533Y-84314285D02*
X142083390Y-84361904D01*
X142083390Y-84361904D02*
X142654819Y-84933332D01*
X142654819Y-84933332D02*
X142654819Y-84314285D01*
X144659580Y-85366666D02*
X144707200Y-85414285D01*
X144707200Y-85414285D02*
X144754819Y-85557142D01*
X144754819Y-85557142D02*
X144754819Y-85652380D01*
X144754819Y-85652380D02*
X144707200Y-85795237D01*
X144707200Y-85795237D02*
X144611961Y-85890475D01*
X144611961Y-85890475D02*
X144516723Y-85938094D01*
X144516723Y-85938094D02*
X144326247Y-85985713D01*
X144326247Y-85985713D02*
X144183390Y-85985713D01*
X144183390Y-85985713D02*
X143992914Y-85938094D01*
X143992914Y-85938094D02*
X143897676Y-85890475D01*
X143897676Y-85890475D02*
X143802438Y-85795237D01*
X143802438Y-85795237D02*
X143754819Y-85652380D01*
X143754819Y-85652380D02*
X143754819Y-85557142D01*
X143754819Y-85557142D02*
X143802438Y-85414285D01*
X143802438Y-85414285D02*
X143850057Y-85366666D01*
X144754819Y-84414285D02*
X144754819Y-84985713D01*
X144754819Y-84699999D02*
X143754819Y-84699999D01*
X143754819Y-84699999D02*
X143897676Y-84795237D01*
X143897676Y-84795237D02*
X143992914Y-84890475D01*
X143992914Y-84890475D02*
X144040533Y-84985713D01*
D12*
%TO.C,IC2*%
X143100000Y-90700000D02*
X143100000Y-90700000D01*
X143200000Y-90700000D02*
X143200000Y-90700000D01*
X143100000Y-90700000D02*
G75*
G02*
X143200000Y-90700000I50000J0D01*
G01*
X143200000Y-90700000D02*
G75*
G02*
X143100000Y-90700000I-50000J0D01*
G01*
D13*
%TO.C,C6*%
X141735000Y-91638748D02*
X141735000Y-92161252D01*
X140265000Y-91638748D02*
X140265000Y-92161252D01*
%TO.C,C5*%
X146538748Y-87265000D02*
X147061252Y-87265000D01*
X146538748Y-88735000D02*
X147061252Y-88735000D01*
%TO.C,C4*%
X142961252Y-88735000D02*
X142438748Y-88735000D01*
X142961252Y-87265000D02*
X142438748Y-87265000D01*
%TO.C,C2*%
X141465000Y-82038748D02*
X141465000Y-82561252D01*
X142935000Y-82038748D02*
X142935000Y-82561252D01*
%TO.C,C1*%
X143565000Y-82038748D02*
X143565000Y-82561252D01*
X145035000Y-82038748D02*
X145035000Y-82561252D01*
%TD*%
%LPC*%
D14*
%TO.C,U1*%
X147420000Y-83956500D03*
X147420000Y-81416500D03*
X147420000Y-78876500D03*
X147420000Y-76336500D03*
X147420000Y-73796500D03*
X147420000Y-71256500D03*
X147420000Y-68716500D03*
X132180000Y-68716500D03*
X132180000Y-71256500D03*
X132180000Y-73796500D03*
X132180000Y-76336500D03*
X132180000Y-78876500D03*
X132180000Y-81416500D03*
D15*
X132180000Y-83956500D03*
%TD*%
D16*
%TO.C,IC2*%
X144200000Y-90700000D03*
X144200000Y-91650000D03*
X144200000Y-92600000D03*
X146800000Y-92600000D03*
X146800000Y-90700000D03*
D17*
X145500000Y-91650000D03*
%TD*%
D18*
%TO.C,C6*%
X141000000Y-90862500D03*
X141000000Y-92937500D03*
%TD*%
D19*
%TO.C,C5*%
X145762500Y-88000000D03*
X147837500Y-88000000D03*
%TD*%
D20*
%TO.C,C4*%
X143737500Y-88000000D03*
X141662500Y-88000000D03*
%TD*%
D21*
%TO.C,J1*%
X132500000Y-92965000D03*
D22*
X132500000Y-90425000D03*
%TD*%
D18*
%TO.C,C2*%
X142200000Y-83337500D03*
X142200000Y-81262500D03*
%TD*%
%TO.C,C1*%
X144300000Y-83337500D03*
X144300000Y-81262500D03*
%TD*%
D23*
%TO.C,C10*%
X137100000Y-90744888D03*
D24*
X137100000Y-92744888D03*
%TD*%
D22*
%TO.C,D3*%
X143500000Y-78375000D03*
D21*
X143500000Y-75835000D03*
%TD*%
D22*
%TO.C,D2*%
X139800000Y-78375000D03*
D21*
X139800000Y-75835000D03*
%TD*%
D22*
%TO.C,D1*%
X136100000Y-78375000D03*
D21*
X136100000Y-75835000D03*
%TD*%
D25*
%TO.C,IC1*%
X139800000Y-64772500D03*
%TD*%
%LPD*%
M02*
