%TF.GenerationSoftware,KiCad,Pcbnew,9.0.4*%
%TF.CreationDate,2025-10-26T13:38:01-07:00*%
%TF.ProjectId,db-collector,64622d63-6f6c-46c6-9563-746f722e6b69,rev?*%
%TF.SameCoordinates,Original*%
%TF.FileFunction,Copper,L1,Top*%
%TF.FilePolarity,Positive*%
%FSLAX46Y46*%
G04 Gerber Fmt 4.6, Leading zero omitted, Abs format (unit mm)*
G04 Created by KiCad (PCBNEW 9.0.4) date 2025-10-26 13:38:01*
%MOMM*%
%LPD*%
G01*
G04 APERTURE LIST*
G04 Aperture macros list*
%AMRoundRect*
0 Rectangle with rounded corners*
0 $1 Rounding radius*
0 $2 $3 $4 $5 $6 $7 $8 $9 X,Y pos of 4 corners*
0 Add a 4 corners polygon primitive as box body*
4,1,4,$2,$3,$4,$5,$6,$7,$8,$9,$2,$3,0*
0 Add four circle primitives for the rounded corners*
1,1,$1+$1,$2,$3*
1,1,$1+$1,$4,$5*
1,1,$1+$1,$6,$7*
1,1,$1+$1,$8,$9*
0 Add four rect primitives between the rounded corners*
20,1,$1+$1,$2,$3,$4,$5,0*
20,1,$1+$1,$4,$5,$6,$7,0*
20,1,$1+$1,$6,$7,$8,$9,0*
20,1,$1+$1,$8,$9,$2,$3,0*%
G04 Aperture macros list end*
%TA.AperFunction,ComponentPad*%
%ADD10C,1.358000*%
%TD*%
%TA.AperFunction,ComponentPad*%
%ADD11R,1.358000X1.358000*%
%TD*%
%TA.AperFunction,SMDPad,CuDef*%
%ADD12R,1.100000X0.600000*%
%TD*%
%TA.AperFunction,SMDPad,CuDef*%
%ADD13R,0.975000X1.700000*%
%TD*%
%TA.AperFunction,SMDPad,CuDef*%
%ADD14RoundRect,0.250000X-0.475000X0.337500X-0.475000X-0.337500X0.475000X-0.337500X0.475000X0.337500X0*%
%TD*%
%TA.AperFunction,SMDPad,CuDef*%
%ADD15RoundRect,0.250000X-0.337500X-0.475000X0.337500X-0.475000X0.337500X0.475000X-0.337500X0.475000X0*%
%TD*%
%TA.AperFunction,SMDPad,CuDef*%
%ADD16RoundRect,0.250000X0.337500X0.475000X-0.337500X0.475000X-0.337500X-0.475000X0.337500X-0.475000X0*%
%TD*%
%TA.AperFunction,ComponentPad*%
%ADD17C,1.700000*%
%TD*%
%TA.AperFunction,ComponentPad*%
%ADD18R,1.700000X1.700000*%
%TD*%
%TA.AperFunction,ComponentPad*%
%ADD19RoundRect,0.250000X-0.550000X0.550000X-0.550000X-0.550000X0.550000X-0.550000X0.550000X0.550000X0*%
%TD*%
%TA.AperFunction,ComponentPad*%
%ADD20C,1.600000*%
%TD*%
%TA.AperFunction,ComponentPad*%
%ADD21C,1.650000*%
%TD*%
%TA.AperFunction,ViaPad*%
%ADD22C,0.600000*%
%TD*%
%TA.AperFunction,Conductor*%
%ADD23C,0.200000*%
%TD*%
%TA.AperFunction,Conductor*%
%ADD24C,0.400000*%
%TD*%
G04 APERTURE END LIST*
D10*
%TO.P,U1,14,VUSB*%
%TO.N,unconnected-(U1-VUSB-Pad14)*%
X147420000Y-83956500D03*
%TO.P,U1,13,GND*%
%TO.N,GND*%
X147420000Y-81416500D03*
%TO.P,U1,12,VCC_3V3*%
%TO.N,+3.3V*%
X147420000Y-78876500D03*
%TO.P,U1,11,D10*%
%TO.N,unconnected-(U1-D10-Pad11)*%
X147420000Y-76336500D03*
%TO.P,U1,10,D9*%
%TO.N,unconnected-(U1-D9-Pad10)*%
X147420000Y-73796500D03*
%TO.P,U1,9,D8*%
%TO.N,unconnected-(U1-D8-Pad9)*%
X147420000Y-71256500D03*
%TO.P,U1,8,RX_D7*%
%TO.N,unconnected-(U1-RX_D7-Pad8)*%
X147420000Y-68716500D03*
%TO.P,U1,7,TX_D6*%
%TO.N,unconnected-(U1-TX_D6-Pad7)*%
X132180000Y-68716500D03*
%TO.P,U1,6,D5*%
%TO.N,Net-(D3-K)*%
X132180000Y-71256500D03*
%TO.P,U1,5,D4*%
%TO.N,Net-(D2-K)*%
X132180000Y-73796500D03*
%TO.P,U1,4,D3*%
%TO.N,Net-(D1-K)*%
X132180000Y-76336500D03*
%TO.P,U1,3,D2*%
%TO.N,/WS*%
X132180000Y-78876500D03*
%TO.P,U1,2,D1*%
%TO.N,/SCK*%
X132180000Y-81416500D03*
D11*
%TO.P,U1,1,D0*%
%TO.N,/SD*%
X132180000Y-83956500D03*
%TD*%
D12*
%TO.P,IC2,1,IN*%
%TO.N,+BATT*%
X144200000Y-90700000D03*
%TO.P,IC2,2,GND_1*%
%TO.N,GND*%
X144200000Y-91650000D03*
%TO.P,IC2,3,EN*%
%TO.N,+BATT*%
X144200000Y-92600000D03*
%TO.P,IC2,4,NC*%
%TO.N,unconnected-(IC2-NC-Pad4)*%
X146800000Y-92600000D03*
%TO.P,IC2,5,OUT*%
%TO.N,+3.3V*%
X146800000Y-90700000D03*
D13*
%TO.P,IC2,6,GND_2*%
%TO.N,GND*%
X145500000Y-91650000D03*
%TD*%
D14*
%TO.P,C6,1*%
%TO.N,+BATT*%
X141000000Y-90862500D03*
%TO.P,C6,2*%
%TO.N,GND*%
X141000000Y-92937500D03*
%TD*%
D15*
%TO.P,C5,1*%
%TO.N,+3.3V*%
X145762500Y-88000000D03*
%TO.P,C5,2*%
%TO.N,GND*%
X147837500Y-88000000D03*
%TD*%
D16*
%TO.P,C4,1*%
%TO.N,+BATT*%
X143737500Y-88000000D03*
%TO.P,C4,2*%
%TO.N,GND*%
X141662500Y-88000000D03*
%TD*%
D17*
%TO.P,J1,2,Pin_2*%
%TO.N,GND*%
X132500000Y-92965000D03*
D18*
%TO.P,J1,1,Pin_1*%
%TO.N,+BATT*%
X132500000Y-90425000D03*
%TD*%
D14*
%TO.P,C2,2*%
%TO.N,GND*%
X142200000Y-83337500D03*
%TO.P,C2,1*%
%TO.N,+3.3V*%
X142200000Y-81262500D03*
%TD*%
%TO.P,C1,2*%
%TO.N,GND*%
X144300000Y-83337500D03*
%TO.P,C1,1*%
%TO.N,+3.3V*%
X144300000Y-81262500D03*
%TD*%
D19*
%TO.P,C10,1*%
%TO.N,+BATT*%
X137100000Y-90744888D03*
D20*
%TO.P,C10,2*%
%TO.N,GND*%
X137100000Y-92744888D03*
%TD*%
D18*
%TO.P,D3,1,K*%
%TO.N,Net-(D3-K)*%
X143500000Y-78375000D03*
D17*
%TO.P,D3,2,A*%
%TO.N,Net-(D3-A)*%
X143500000Y-75835000D03*
%TD*%
D18*
%TO.P,D2,1,K*%
%TO.N,Net-(D2-K)*%
X139800000Y-78375000D03*
D17*
%TO.P,D2,2,A*%
%TO.N,Net-(D2-A)*%
X139800000Y-75835000D03*
%TD*%
D18*
%TO.P,D1,1,K*%
%TO.N,Net-(D1-K)*%
X136100000Y-78375000D03*
D17*
%TO.P,D1,2,A*%
%TO.N,Net-(D1-A)*%
X136100000Y-75835000D03*
%TD*%
D21*
%TO.P,IC1,4,GND*%
%TO.N,GND*%
X139800000Y-64772500D03*
%TD*%
D22*
%TO.N,GND*%
X147837500Y-89700000D03*
X147200000Y-91650000D03*
X142100000Y-84500000D03*
%TO.N,Net-(D3-K)*%
X134702000Y-75000000D03*
%TO.N,/SD*%
X141200000Y-68500000D03*
%TO.N,/SCK*%
X140400000Y-68400000D03*
%TO.N,/WS*%
X138500000Y-68500000D03*
%TO.N,+3.3V*%
X144900000Y-70300000D03*
%TD*%
D23*
%TO.N,/SD*%
X134102000Y-82034500D02*
X132180000Y-83956500D01*
X141200000Y-68500000D02*
X140700000Y-69000000D01*
X140700000Y-69000000D02*
X139534200Y-69000000D01*
X139534200Y-69000000D02*
X134102000Y-74432200D01*
X134102000Y-74432200D02*
X134102000Y-82034500D01*
%TO.N,/WS*%
X133300000Y-74100000D02*
X133300000Y-77756500D01*
X138500000Y-68500000D02*
X138100000Y-68900000D01*
X138100000Y-69300000D02*
X133300000Y-74100000D01*
X138100000Y-68900000D02*
X138100000Y-69300000D01*
X133300000Y-77756500D02*
X132180000Y-78876500D01*
%TO.N,/SCK*%
X140400000Y-68400000D02*
X139567100Y-68400000D01*
X139567100Y-68400000D02*
X133701000Y-74266100D01*
X133701000Y-74266100D02*
X133701000Y-79895500D01*
X133701000Y-79895500D02*
X132180000Y-81416500D01*
D24*
%TO.N,+3.3V*%
X146800000Y-90700000D02*
X146800000Y-89600000D01*
X145762500Y-88562500D02*
X145762500Y-88000000D01*
X146800000Y-89600000D02*
X145762500Y-88562500D01*
%TO.N,GND*%
X141000000Y-92937500D02*
X137292612Y-92937500D01*
X137292612Y-92937500D02*
X137100000Y-92744888D01*
X147837500Y-89700000D02*
X147837500Y-91314500D01*
X147200000Y-91650000D02*
X145500000Y-91650000D01*
X145500000Y-91650000D02*
X144200000Y-91650000D01*
X147837500Y-88000000D02*
X147837500Y-89700000D01*
X147502000Y-91650000D02*
X147200000Y-91650000D01*
X147837500Y-91314500D02*
X147502000Y-91650000D01*
X141662500Y-88000000D02*
X141662500Y-84937500D01*
X141662500Y-84937500D02*
X142100000Y-84500000D01*
X142200000Y-84400000D02*
X142100000Y-84500000D01*
X142200000Y-83337500D02*
X142200000Y-84400000D01*
X142200000Y-83337500D02*
X144300000Y-83337500D01*
D23*
%TO.N,Net-(D3-K)*%
X135623240Y-76986000D02*
X134702000Y-76064760D01*
X134702000Y-76064760D02*
X134702000Y-75000000D01*
X142111000Y-76986000D02*
X135623240Y-76986000D01*
X143500000Y-78375000D02*
X142111000Y-76986000D01*
%TO.N,+3.3V*%
X144900000Y-70300000D02*
X144900000Y-76356500D01*
X144900000Y-76356500D02*
X147420000Y-78876500D01*
D24*
X145762500Y-88000000D02*
X145762500Y-82725000D01*
X145762500Y-82725000D02*
X144300000Y-81262500D01*
X144300000Y-81262500D02*
X142200000Y-81262500D01*
X147420000Y-78876500D02*
X145034000Y-81262500D01*
X145034000Y-81262500D02*
X144300000Y-81262500D01*
%TO.N,+BATT*%
X144200000Y-92600000D02*
X142737500Y-92600000D01*
X142737500Y-92600000D02*
X141000000Y-90862500D01*
X143737500Y-88000000D02*
X143737500Y-90237500D01*
X143737500Y-90237500D02*
X144200000Y-90700000D01*
X141000000Y-90862500D02*
X144037500Y-90862500D01*
X144037500Y-90862500D02*
X144200000Y-90700000D01*
X137100000Y-90744888D02*
X140882388Y-90744888D01*
X140882388Y-90744888D02*
X141000000Y-90862500D01*
X132500000Y-90425000D02*
X136780112Y-90425000D01*
X136780112Y-90425000D02*
X137100000Y-90744888D01*
D23*
X144200000Y-90700000D02*
X144200000Y-90600000D01*
%TD*%
M02*
