%TF.GenerationSoftware,KiCad,Pcbnew,9.0.4*%
%TF.CreationDate,2025-10-26T13:38:01-07:00*%
%TF.ProjectId,db-collector,64622d63-6f6c-46c6-9563-746f722e6b69,rev?*%
%TF.SameCoordinates,Original*%
%TF.FileFunction,Copper,L2,Bot*%
%TF.FilePolarity,Positive*%
%FSLAX46Y46*%
G04 Gerber Fmt 4.6, Leading zero omitted, Abs format (unit mm)*
G04 Created by KiCad (PCBNEW 9.0.4) date 2025-10-26 13:38:01*
%MOMM*%
%LPD*%
G01*
G04 APERTURE LIST*
G04 Aperture macros list*
%AMRoundRect*
0 Rectangle with rounded corners*
0 $1 Rounding radius*
0 $2 $3 $4 $5 $6 $7 $8 $9 X,Y pos of 4 corners*
0 Add a 4 corners polygon primitive as box body*
4,1,4,$2,$3,$4,$5,$6,$7,$8,$9,$2,$3,0*
0 Add four circle primitives for the rounded corners*
1,1,$1+$1,$2,$3*
1,1,$1+$1,$4,$5*
1,1,$1+$1,$6,$7*
1,1,$1+$1,$8,$9*
0 Add four rect primitives between the rounded corners*
20,1,$1+$1,$2,$3,$4,$5,0*
20,1,$1+$1,$4,$5,$6,$7,0*
20,1,$1+$1,$6,$7,$8,$9,0*
20,1,$1+$1,$8,$9,$2,$3,0*%
G04 Aperture macros list end*
%TA.AperFunction,ComponentPad*%
%ADD10C,1.358000*%
%TD*%
%TA.AperFunction,ComponentPad*%
%ADD11R,1.358000X1.358000*%
%TD*%
%TA.AperFunction,ComponentPad*%
%ADD12C,1.700000*%
%TD*%
%TA.AperFunction,ComponentPad*%
%ADD13R,1.700000X1.700000*%
%TD*%
%TA.AperFunction,ComponentPad*%
%ADD14RoundRect,0.250000X-0.550000X0.550000X-0.550000X-0.550000X0.550000X-0.550000X0.550000X0.550000X0*%
%TD*%
%TA.AperFunction,ComponentPad*%
%ADD15C,1.600000*%
%TD*%
%TA.AperFunction,SMDPad,CuDef*%
%ADD16RoundRect,0.250000X0.450000X-0.350000X0.450000X0.350000X-0.450000X0.350000X-0.450000X-0.350000X0*%
%TD*%
%TA.AperFunction,SMDPad,CuDef*%
%ADD17RoundRect,0.250000X0.475000X-0.337500X0.475000X0.337500X-0.475000X0.337500X-0.475000X-0.337500X0*%
%TD*%
%TA.AperFunction,SMDPad,CuDef*%
%ADD18RoundRect,0.250000X-0.450000X0.350000X-0.450000X-0.350000X0.450000X-0.350000X0.450000X0.350000X0*%
%TD*%
%TA.AperFunction,SMDPad,CuDef*%
%ADD19R,0.600000X0.400000*%
%TD*%
%TA.AperFunction,ComponentPad*%
%ADD20C,1.650000*%
%TD*%
%TA.AperFunction,ViaPad*%
%ADD21C,0.600000*%
%TD*%
%TA.AperFunction,Conductor*%
%ADD22C,0.200000*%
%TD*%
%TA.AperFunction,Conductor*%
%ADD23C,0.400000*%
%TD*%
G04 APERTURE END LIST*
D10*
%TO.P,U1,14,VUSB*%
%TO.N,unconnected-(U1-VUSB-Pad14)*%
X147420000Y-83956500D03*
%TO.P,U1,13,GND*%
%TO.N,GND*%
X147420000Y-81416500D03*
%TO.P,U1,12,VCC_3V3*%
%TO.N,+3.3V*%
X147420000Y-78876500D03*
%TO.P,U1,11,D10*%
%TO.N,unconnected-(U1-D10-Pad11)*%
X147420000Y-76336500D03*
%TO.P,U1,10,D9*%
%TO.N,unconnected-(U1-D9-Pad10)*%
X147420000Y-73796500D03*
%TO.P,U1,9,D8*%
%TO.N,unconnected-(U1-D8-Pad9)*%
X147420000Y-71256500D03*
%TO.P,U1,8,RX_D7*%
%TO.N,unconnected-(U1-RX_D7-Pad8)*%
X147420000Y-68716500D03*
%TO.P,U1,7,TX_D6*%
%TO.N,unconnected-(U1-TX_D6-Pad7)*%
X132180000Y-68716500D03*
%TO.P,U1,6,D5*%
%TO.N,Net-(D3-K)*%
X132180000Y-71256500D03*
%TO.P,U1,5,D4*%
%TO.N,Net-(D2-K)*%
X132180000Y-73796500D03*
%TO.P,U1,4,D3*%
%TO.N,Net-(D1-K)*%
X132180000Y-76336500D03*
%TO.P,U1,3,D2*%
%TO.N,/WS*%
X132180000Y-78876500D03*
%TO.P,U1,2,D1*%
%TO.N,/SCK*%
X132180000Y-81416500D03*
D11*
%TO.P,U1,1,D0*%
%TO.N,/SD*%
X132180000Y-83956500D03*
%TD*%
D12*
%TO.P,J1,2,Pin_2*%
%TO.N,GND*%
X132500000Y-92965000D03*
D13*
%TO.P,J1,1,Pin_1*%
%TO.N,+BATT*%
X132500000Y-90425000D03*
%TD*%
D14*
%TO.P,C10,1*%
%TO.N,+BATT*%
X137100000Y-90744888D03*
D15*
%TO.P,C10,2*%
%TO.N,GND*%
X137100000Y-92744888D03*
%TD*%
D16*
%TO.P,R1,1*%
%TO.N,/SD*%
X143367562Y-66922500D03*
%TO.P,R1,2*%
%TO.N,GND*%
X143367562Y-64922500D03*
%TD*%
D17*
%TO.P,C3,2*%
%TO.N,GND*%
X136200000Y-64855000D03*
%TO.P,C3,1*%
%TO.N,+3.3V*%
X136200000Y-66930000D03*
%TD*%
D13*
%TO.P,D3,1,K*%
%TO.N,Net-(D3-K)*%
X143500000Y-78375000D03*
D12*
%TO.P,D3,2,A*%
%TO.N,Net-(D3-A)*%
X143500000Y-75835000D03*
%TD*%
D18*
%TO.P,R2,1*%
%TO.N,+3.3V*%
X143500000Y-69800000D03*
%TO.P,R2,2*%
%TO.N,Net-(D3-A)*%
X143500000Y-71800000D03*
%TD*%
D13*
%TO.P,D2,1,K*%
%TO.N,Net-(D2-K)*%
X139800000Y-78375000D03*
D12*
%TO.P,D2,2,A*%
%TO.N,Net-(D2-A)*%
X139800000Y-75835000D03*
%TD*%
D18*
%TO.P,R3,1*%
%TO.N,+3.3V*%
X139800000Y-69800000D03*
%TO.P,R3,2*%
%TO.N,Net-(D2-A)*%
X139800000Y-71800000D03*
%TD*%
D13*
%TO.P,D1,1,K*%
%TO.N,Net-(D1-K)*%
X136100000Y-78375000D03*
D12*
%TO.P,D1,2,A*%
%TO.N,Net-(D1-A)*%
X136100000Y-75835000D03*
%TD*%
D18*
%TO.P,R4,1*%
%TO.N,+3.3V*%
X136100000Y-69800000D03*
%TO.P,R4,2*%
%TO.N,Net-(D1-A)*%
X136100000Y-71800000D03*
%TD*%
D19*
%TO.P,IC1,1,LR*%
%TO.N,+3.3V*%
X138725000Y-67347500D03*
%TO.P,IC1,2,CONFIG*%
%TO.N,GND*%
X138725000Y-66697500D03*
%TO.P,IC1,3,VDD*%
%TO.N,+3.3V*%
X138725000Y-66047500D03*
D20*
%TO.P,IC1,4,GND*%
%TO.N,GND*%
X139800000Y-64772500D03*
D19*
%TO.P,IC1,5,WS*%
%TO.N,/WS*%
X140875000Y-66047500D03*
%TO.P,IC1,6,SCK*%
%TO.N,/SCK*%
X140875000Y-66697500D03*
%TO.P,IC1,7,SD*%
%TO.N,/SD*%
X140875000Y-67347500D03*
%TD*%
D21*
%TO.N,GND*%
X147837500Y-89700000D03*
X147200000Y-91650000D03*
X142100000Y-84500000D03*
%TO.N,Net-(D3-K)*%
X134702000Y-75000000D03*
%TO.N,/SD*%
X141200000Y-68500000D03*
%TO.N,/SCK*%
X140400000Y-68400000D03*
%TO.N,/WS*%
X138500000Y-68500000D03*
%TO.N,+3.3V*%
X144900000Y-70300000D03*
%TD*%
D22*
%TO.N,+3.3V*%
X138725000Y-67347500D02*
X139225000Y-67347500D01*
X139326000Y-66148500D02*
X139225000Y-66047500D01*
X139225000Y-66047500D02*
X138725000Y-66047500D01*
X139225000Y-67347500D02*
X139326000Y-67246500D01*
X139326000Y-67246500D02*
X139326000Y-66148500D01*
%TO.N,/SD*%
X140875000Y-67825000D02*
X140875000Y-67347500D01*
X141200000Y-68150000D02*
X140875000Y-67825000D01*
X141200000Y-68500000D02*
X141200000Y-68150000D01*
%TO.N,/WS*%
X139000000Y-68000000D02*
X139400000Y-68000000D01*
X139800000Y-67600000D02*
X139800000Y-66622500D01*
X139400000Y-68000000D02*
X139800000Y-67600000D01*
X140375000Y-66047500D02*
X140875000Y-66047500D01*
X138500000Y-68500000D02*
X139000000Y-68000000D01*
X139800000Y-66622500D02*
X140375000Y-66047500D01*
%TO.N,/SCK*%
X140400000Y-68400000D02*
X140274000Y-68274000D01*
X140274000Y-66826000D02*
X140379500Y-66720500D01*
X140274000Y-68274000D02*
X140274000Y-66826000D01*
X140379500Y-66720500D02*
X140400000Y-66720500D01*
X140400000Y-66720500D02*
X140423000Y-66697500D01*
X140423000Y-66697500D02*
X140875000Y-66697500D01*
D23*
%TO.N,GND*%
X138725000Y-66697500D02*
X138042500Y-66697500D01*
X138042500Y-66697500D02*
X136200000Y-64855000D01*
D22*
%TO.N,Net-(D3-K)*%
X134702000Y-73778500D02*
X132180000Y-71256500D01*
X134702000Y-75000000D02*
X134702000Y-73778500D01*
%TO.N,Net-(D2-K)*%
X139800000Y-78375000D02*
X138649000Y-77224000D01*
X138649000Y-77224000D02*
X135607500Y-77224000D01*
X135607500Y-77224000D02*
X132180000Y-73796500D01*
%TO.N,Net-(D1-K)*%
X136100000Y-78375000D02*
X134218500Y-78375000D01*
X134218500Y-78375000D02*
X132180000Y-76336500D01*
%TO.N,+3.3V*%
X144400000Y-69800000D02*
X144900000Y-70300000D01*
X143500000Y-69800000D02*
X144400000Y-69800000D01*
X139800000Y-69800000D02*
X143500000Y-69800000D01*
X136100000Y-69800000D02*
X139800000Y-69800000D01*
X136200000Y-66930000D02*
X136200000Y-69700000D01*
X136200000Y-69700000D02*
X136100000Y-69800000D01*
%TO.N,Net-(D3-A)*%
X143500000Y-75835000D02*
X143500000Y-71800000D01*
%TO.N,Net-(D2-A)*%
X139800000Y-75835000D02*
X139800000Y-71800000D01*
%TO.N,Net-(D1-A)*%
X136100000Y-75835000D02*
X136100000Y-71800000D01*
%TO.N,+3.3V*%
X138725000Y-67347500D02*
X136617500Y-67347500D01*
X136617500Y-67347500D02*
X136200000Y-66930000D01*
%TO.N,/SD*%
X140875000Y-67347500D02*
X142942562Y-67347500D01*
X142942562Y-67347500D02*
X143367562Y-66922500D01*
%TD*%
%TA.AperFunction,Conductor*%
%TO.N,GND*%
G36*
X132034075Y-93157993D02*
G01*
X132099901Y-93272007D01*
X132192993Y-93365099D01*
X132307007Y-93430925D01*
X132370590Y-93447962D01*
X131738282Y-94080269D01*
X131740751Y-94111629D01*
X131726387Y-94180006D01*
X131677336Y-94229764D01*
X131617133Y-94245359D01*
X131284500Y-94245359D01*
X131217461Y-94225674D01*
X131171706Y-94172870D01*
X131160500Y-94121359D01*
X131160500Y-93799725D01*
X131180185Y-93732686D01*
X131232989Y-93686931D01*
X131302147Y-93676987D01*
X131365703Y-93706012D01*
X131384702Y-93726714D01*
X131384728Y-93726716D01*
X132017037Y-93094408D01*
X132034075Y-93157993D01*
G37*
%TD.AperFunction*%
%TA.AperFunction,Conductor*%
G36*
X148382539Y-63192685D02*
G01*
X148428294Y-63245489D01*
X148439500Y-63297000D01*
X148439500Y-68256154D01*
X148419815Y-68323193D01*
X148367011Y-68368948D01*
X148297853Y-68378892D01*
X148234297Y-68349867D01*
X148200940Y-68303610D01*
X148199402Y-68299897D01*
X148103156Y-68155855D01*
X148103150Y-68155847D01*
X147980652Y-68033349D01*
X147980644Y-68033343D01*
X147836601Y-67937097D01*
X147676541Y-67870798D01*
X147676533Y-67870796D01*
X147506627Y-67837000D01*
X147506623Y-67837000D01*
X147333377Y-67837000D01*
X147333372Y-67837000D01*
X147163466Y-67870796D01*
X147163458Y-67870798D01*
X147003398Y-67937097D01*
X147003397Y-67937097D01*
X146859355Y-68033343D01*
X146859347Y-68033349D01*
X146736849Y-68155847D01*
X146736843Y-68155855D01*
X146640597Y-68299897D01*
X146640597Y-68299898D01*
X146574298Y-68459958D01*
X146574296Y-68459966D01*
X146540500Y-68629872D01*
X146540500Y-68803127D01*
X146574296Y-68973033D01*
X146574298Y-68973041D01*
X146640597Y-69133101D01*
X146640597Y-69133102D01*
X146736843Y-69277144D01*
X146736849Y-69277152D01*
X146859347Y-69399650D01*
X146859355Y-69399656D01*
X147003398Y-69495902D01*
X147003399Y-69495902D01*
X147003400Y-69495903D01*
X147163459Y-69562202D01*
X147333372Y-69595999D01*
X147333376Y-69596000D01*
X147333377Y-69596000D01*
X147506624Y-69596000D01*
X147506625Y-69595999D01*
X147676541Y-69562202D01*
X147836600Y-69495903D01*
X147836601Y-69495902D01*
X147836602Y-69495902D01*
X147908141Y-69448100D01*
X147980649Y-69399653D01*
X148103153Y-69277149D01*
X148199403Y-69133100D01*
X148200097Y-69131422D01*
X148200939Y-69129393D01*
X148202263Y-69127749D01*
X148202276Y-69127726D01*
X148202280Y-69127728D01*
X148244779Y-69074989D01*
X148311073Y-69052924D01*
X148378773Y-69070203D01*
X148426383Y-69121339D01*
X148439500Y-69176845D01*
X148439500Y-70796154D01*
X148419815Y-70863193D01*
X148367011Y-70908948D01*
X148297853Y-70918892D01*
X148234297Y-70889867D01*
X148200940Y-70843610D01*
X148199402Y-70839897D01*
X148103156Y-70695855D01*
X148103150Y-70695847D01*
X147980652Y-70573349D01*
X147980644Y-70573343D01*
X147836601Y-70477097D01*
X147676541Y-70410798D01*
X147676533Y-70410796D01*
X147506627Y-70377000D01*
X147506623Y-70377000D01*
X147333377Y-70377000D01*
X147333372Y-70377000D01*
X147163466Y-70410796D01*
X147163458Y-70410798D01*
X147003398Y-70477097D01*
X147003397Y-70477097D01*
X146859355Y-70573343D01*
X146859347Y-70573349D01*
X146736849Y-70695847D01*
X146736843Y-70695855D01*
X146640597Y-70839897D01*
X146640597Y-70839898D01*
X146574298Y-70999958D01*
X146574296Y-70999966D01*
X146540500Y-71169872D01*
X146540500Y-71343127D01*
X146574296Y-71513033D01*
X146574298Y-71513041D01*
X146640597Y-71673101D01*
X146640597Y-71673102D01*
X146736843Y-71817144D01*
X146736849Y-71817152D01*
X146859347Y-71939650D01*
X146859355Y-71939656D01*
X147003398Y-72035902D01*
X147003399Y-72035902D01*
X147003400Y-72035903D01*
X147163459Y-72102202D01*
X147333372Y-72135999D01*
X147333376Y-72136000D01*
X147333377Y-72136000D01*
X147506624Y-72136000D01*
X147506625Y-72135999D01*
X147676541Y-72102202D01*
X147836600Y-72035903D01*
X147836601Y-72035902D01*
X147836602Y-72035902D01*
X147908141Y-71988100D01*
X147980649Y-71939653D01*
X148103153Y-71817149D01*
X148199403Y-71673100D01*
X148200097Y-71671422D01*
X148200939Y-71669393D01*
X148202263Y-71667749D01*
X148202276Y-71667726D01*
X148202280Y-71667728D01*
X148244779Y-71614989D01*
X148311073Y-71592924D01*
X148378773Y-71610203D01*
X148426383Y-71661339D01*
X148439500Y-71716845D01*
X148439500Y-73336154D01*
X148419815Y-73403193D01*
X148367011Y-73448948D01*
X148297853Y-73458892D01*
X148234297Y-73429867D01*
X148200940Y-73383610D01*
X148199402Y-73379897D01*
X148103156Y-73235855D01*
X148103150Y-73235847D01*
X147980652Y-73113349D01*
X147980644Y-73113343D01*
X147836601Y-73017097D01*
X147676541Y-72950798D01*
X147676533Y-72950796D01*
X147506627Y-72917000D01*
X147506623Y-72917000D01*
X147333377Y-72917000D01*
X147333372Y-72917000D01*
X147163466Y-72950796D01*
X147163458Y-72950798D01*
X147003398Y-73017097D01*
X147003397Y-73017097D01*
X146859355Y-73113343D01*
X146859347Y-73113349D01*
X146736849Y-73235847D01*
X146736843Y-73235855D01*
X146640597Y-73379897D01*
X146640597Y-73379898D01*
X146574298Y-73539958D01*
X146574296Y-73539966D01*
X146540500Y-73709872D01*
X146540500Y-73883127D01*
X146574296Y-74053033D01*
X146574298Y-74053041D01*
X146640597Y-74213101D01*
X146640597Y-74213102D01*
X146736843Y-74357144D01*
X146736849Y-74357152D01*
X146859347Y-74479650D01*
X146859355Y-74479656D01*
X147003398Y-74575902D01*
X147003399Y-74575902D01*
X147003400Y-74575903D01*
X147163459Y-74642202D01*
X147333372Y-74675999D01*
X147333376Y-74676000D01*
X147333377Y-74676000D01*
X147506624Y-74676000D01*
X147506625Y-74675999D01*
X147676541Y-74642202D01*
X147836600Y-74575903D01*
X147836601Y-74575902D01*
X147836602Y-74575902D01*
X147908141Y-74528100D01*
X147980649Y-74479653D01*
X148103153Y-74357149D01*
X148199403Y-74213100D01*
X148200097Y-74211422D01*
X148200939Y-74209393D01*
X148202263Y-74207749D01*
X148202276Y-74207726D01*
X148202280Y-74207728D01*
X148244779Y-74154989D01*
X148311073Y-74132924D01*
X148378773Y-74150203D01*
X148426383Y-74201339D01*
X148439500Y-74256845D01*
X148439500Y-75876154D01*
X148419815Y-75943193D01*
X148367011Y-75988948D01*
X148297853Y-75998892D01*
X148234297Y-75969867D01*
X148200940Y-75923610D01*
X148199402Y-75919897D01*
X148103156Y-75775855D01*
X148103150Y-75775847D01*
X147980652Y-75653349D01*
X147980644Y-75653343D01*
X147836601Y-75557097D01*
X147676541Y-75490798D01*
X147676533Y-75490796D01*
X147506627Y-75457000D01*
X147506623Y-75457000D01*
X147333377Y-75457000D01*
X147333372Y-75457000D01*
X147163466Y-75490796D01*
X147163458Y-75490798D01*
X147003398Y-75557097D01*
X147003397Y-75557097D01*
X146859355Y-75653343D01*
X146859347Y-75653349D01*
X146736849Y-75775847D01*
X146736843Y-75775855D01*
X146640597Y-75919897D01*
X146640597Y-75919898D01*
X146574298Y-76079958D01*
X146574296Y-76079966D01*
X146540500Y-76249872D01*
X146540500Y-76423127D01*
X146574296Y-76593033D01*
X146574298Y-76593041D01*
X146640597Y-76753101D01*
X146640597Y-76753102D01*
X146736843Y-76897144D01*
X146736849Y-76897152D01*
X146859347Y-77019650D01*
X146859355Y-77019656D01*
X147003398Y-77115902D01*
X147003399Y-77115902D01*
X147003400Y-77115903D01*
X147163459Y-77182202D01*
X147333372Y-77215999D01*
X147333376Y-77216000D01*
X147333377Y-77216000D01*
X147506624Y-77216000D01*
X147506625Y-77215999D01*
X147676541Y-77182202D01*
X147836600Y-77115903D01*
X147836601Y-77115902D01*
X147836602Y-77115902D01*
X147908141Y-77068100D01*
X147980649Y-77019653D01*
X148103153Y-76897149D01*
X148199403Y-76753100D01*
X148200097Y-76751422D01*
X148200939Y-76749393D01*
X148202263Y-76747749D01*
X148202276Y-76747726D01*
X148202280Y-76747728D01*
X148244779Y-76694989D01*
X148311073Y-76672924D01*
X148378773Y-76690203D01*
X148426383Y-76741339D01*
X148439500Y-76796845D01*
X148439500Y-78416154D01*
X148419815Y-78483193D01*
X148367011Y-78528948D01*
X148297853Y-78538892D01*
X148234297Y-78509867D01*
X148200940Y-78463610D01*
X148199402Y-78459897D01*
X148103156Y-78315855D01*
X148103150Y-78315847D01*
X147980652Y-78193349D01*
X147980644Y-78193343D01*
X147836601Y-78097097D01*
X147676541Y-78030798D01*
X147676533Y-78030796D01*
X147506627Y-77997000D01*
X147506623Y-77997000D01*
X147333377Y-77997000D01*
X147333372Y-77997000D01*
X147163466Y-78030796D01*
X147163458Y-78030798D01*
X147003398Y-78097097D01*
X147003397Y-78097097D01*
X146859355Y-78193343D01*
X146859347Y-78193349D01*
X146736849Y-78315847D01*
X146736843Y-78315855D01*
X146640597Y-78459897D01*
X146640597Y-78459898D01*
X146574298Y-78619958D01*
X146574296Y-78619966D01*
X146540500Y-78789872D01*
X146540500Y-78963127D01*
X146574296Y-79133033D01*
X146574298Y-79133041D01*
X146640597Y-79293101D01*
X146640597Y-79293102D01*
X146736843Y-79437144D01*
X146736849Y-79437152D01*
X146859347Y-79559650D01*
X146859355Y-79559656D01*
X147003398Y-79655902D01*
X147003399Y-79655902D01*
X147003400Y-79655903D01*
X147163459Y-79722202D01*
X147333372Y-79755999D01*
X147333376Y-79756000D01*
X147333377Y-79756000D01*
X147506624Y-79756000D01*
X147506625Y-79755999D01*
X147676541Y-79722202D01*
X147836600Y-79655903D01*
X147836601Y-79655902D01*
X147836602Y-79655902D01*
X147908141Y-79608100D01*
X147980649Y-79559653D01*
X148103153Y-79437149D01*
X148192634Y-79303231D01*
X148199402Y-79293102D01*
X148199403Y-79293099D01*
X148200939Y-79289393D01*
X148202263Y-79287749D01*
X148202276Y-79287726D01*
X148202280Y-79287728D01*
X148244779Y-79234989D01*
X148311073Y-79212924D01*
X148378773Y-79230203D01*
X148426383Y-79281339D01*
X148439500Y-79336845D01*
X148439500Y-80699190D01*
X148419815Y-80766229D01*
X148403181Y-80786871D01*
X147841725Y-81348326D01*
X147816037Y-81252456D01*
X147760084Y-81155544D01*
X147680956Y-81076416D01*
X147584044Y-81020463D01*
X147488172Y-80994774D01*
X148059295Y-80423651D01*
X148037931Y-80408129D01*
X147872583Y-80323879D01*
X147696083Y-80266531D01*
X147512788Y-80237500D01*
X147327212Y-80237500D01*
X147143916Y-80266531D01*
X146967416Y-80323879D01*
X146802065Y-80408131D01*
X146780704Y-80423650D01*
X146780704Y-80423651D01*
X147351828Y-80994774D01*
X147255956Y-81020463D01*
X147159044Y-81076416D01*
X147079916Y-81155544D01*
X147023963Y-81252456D01*
X146998274Y-81348327D01*
X146427150Y-80777204D01*
X146411631Y-80798565D01*
X146327379Y-80963916D01*
X146270031Y-81140416D01*
X146241000Y-81323711D01*
X146241000Y-81509288D01*
X146270031Y-81692583D01*
X146327379Y-81869083D01*
X146411629Y-82034431D01*
X146427151Y-82055794D01*
X146427151Y-82055795D01*
X146998274Y-81484672D01*
X147023963Y-81580544D01*
X147079916Y-81677456D01*
X147159044Y-81756584D01*
X147255956Y-81812537D01*
X147351827Y-81838225D01*
X146780704Y-82409347D01*
X146780704Y-82409348D01*
X146802068Y-82424870D01*
X146967416Y-82509120D01*
X147143916Y-82566468D01*
X147327212Y-82595500D01*
X147512788Y-82595500D01*
X147696083Y-82566468D01*
X147872583Y-82509120D01*
X148037933Y-82424868D01*
X148037940Y-82424864D01*
X148059294Y-82409348D01*
X148059295Y-82409347D01*
X147488173Y-81838225D01*
X147584044Y-81812537D01*
X147680956Y-81756584D01*
X147760084Y-81677456D01*
X147816037Y-81580544D01*
X147841725Y-81484672D01*
X148403181Y-82046128D01*
X148436666Y-82107451D01*
X148439500Y-82133809D01*
X148439500Y-83496154D01*
X148419815Y-83563193D01*
X148367011Y-83608948D01*
X148297853Y-83618892D01*
X148234297Y-83589867D01*
X148200940Y-83543610D01*
X148199402Y-83539897D01*
X148103156Y-83395855D01*
X148103150Y-83395847D01*
X147980652Y-83273349D01*
X147980644Y-83273343D01*
X147836601Y-83177097D01*
X147676541Y-83110798D01*
X147676533Y-83110796D01*
X147506627Y-83077000D01*
X147506623Y-83077000D01*
X147333377Y-83077000D01*
X147333372Y-83077000D01*
X147163466Y-83110796D01*
X147163458Y-83110798D01*
X147003398Y-83177097D01*
X147003397Y-83177097D01*
X146859355Y-83273343D01*
X146859347Y-83273349D01*
X146736849Y-83395847D01*
X146736843Y-83395855D01*
X146640597Y-83539897D01*
X146640597Y-83539898D01*
X146574298Y-83699958D01*
X146574296Y-83699966D01*
X146540500Y-83869872D01*
X146540500Y-84043127D01*
X146574296Y-84213033D01*
X146574298Y-84213041D01*
X146640597Y-84373101D01*
X146640597Y-84373102D01*
X146736843Y-84517144D01*
X146736849Y-84517152D01*
X146859347Y-84639650D01*
X146859355Y-84639656D01*
X147003398Y-84735902D01*
X147003399Y-84735902D01*
X147003400Y-84735903D01*
X147163459Y-84802202D01*
X147274893Y-84824367D01*
X147333372Y-84835999D01*
X147333376Y-84836000D01*
X147333377Y-84836000D01*
X147506624Y-84836000D01*
X147506625Y-84835999D01*
X147676541Y-84802202D01*
X147836600Y-84735903D01*
X147836601Y-84735902D01*
X147836602Y-84735902D01*
X147957309Y-84655248D01*
X147980649Y-84639653D01*
X148103153Y-84517149D01*
X148199403Y-84373100D01*
X148200097Y-84371422D01*
X148200939Y-84369393D01*
X148202263Y-84367749D01*
X148202276Y-84367726D01*
X148202280Y-84367728D01*
X148244779Y-84314989D01*
X148311073Y-84292924D01*
X148378773Y-84310203D01*
X148426383Y-84361339D01*
X148439500Y-84416845D01*
X148439500Y-94121359D01*
X148419815Y-94188398D01*
X148367011Y-94234153D01*
X148315500Y-94245359D01*
X137471820Y-94245359D01*
X137404781Y-94225674D01*
X137359026Y-94172870D01*
X137349082Y-94103712D01*
X137378107Y-94040156D01*
X137433501Y-94003428D01*
X137599031Y-93949643D01*
X137781349Y-93856747D01*
X137825921Y-93824362D01*
X137146447Y-93144888D01*
X137152661Y-93144888D01*
X137254394Y-93117629D01*
X137345606Y-93064968D01*
X137420080Y-92990494D01*
X137472741Y-92899282D01*
X137500000Y-92797549D01*
X137500000Y-92791335D01*
X138179474Y-93470809D01*
X138211859Y-93426237D01*
X138304755Y-93243919D01*
X138367990Y-93049305D01*
X138400000Y-92847205D01*
X138400000Y-92642570D01*
X138367990Y-92440470D01*
X138304755Y-92245856D01*
X138211859Y-92063538D01*
X138179474Y-92018965D01*
X138179474Y-92018964D01*
X137500000Y-92698439D01*
X137500000Y-92692227D01*
X137472741Y-92590494D01*
X137420080Y-92499282D01*
X137345606Y-92424808D01*
X137254394Y-92372147D01*
X137152661Y-92344888D01*
X137146447Y-92344888D01*
X137736377Y-91754956D01*
X137783101Y-91725597D01*
X137862882Y-91697681D01*
X137972150Y-91617038D01*
X138052793Y-91507770D01*
X138083662Y-91419552D01*
X138097646Y-91379589D01*
X138097646Y-91379587D01*
X138100500Y-91349157D01*
X138100500Y-90140618D01*
X138097646Y-90110188D01*
X138097646Y-90110186D01*
X138052793Y-89982007D01*
X138052792Y-89982005D01*
X137972150Y-89872738D01*
X137862882Y-89792095D01*
X137862880Y-89792094D01*
X137734700Y-89747241D01*
X137704270Y-89744388D01*
X137704266Y-89744388D01*
X136495734Y-89744388D01*
X136495730Y-89744388D01*
X136465300Y-89747241D01*
X136465298Y-89747241D01*
X136337119Y-89792094D01*
X136337117Y-89792095D01*
X136227850Y-89872738D01*
X136147207Y-89982005D01*
X136147206Y-89982007D01*
X136102353Y-90110186D01*
X136102353Y-90110188D01*
X136099500Y-90140618D01*
X136099500Y-91349157D01*
X136102353Y-91379587D01*
X136102353Y-91379589D01*
X136135915Y-91475500D01*
X136147207Y-91507770D01*
X136227850Y-91617038D01*
X136337118Y-91697681D01*
X136416896Y-91725596D01*
X136463621Y-91754956D01*
X137053554Y-92344888D01*
X137047339Y-92344888D01*
X136945606Y-92372147D01*
X136854394Y-92424808D01*
X136779920Y-92499282D01*
X136727259Y-92590494D01*
X136700000Y-92692227D01*
X136700000Y-92698441D01*
X136020524Y-92018965D01*
X136020523Y-92018965D01*
X135988143Y-92063532D01*
X135895244Y-92245856D01*
X135832009Y-92440470D01*
X135800000Y-92642570D01*
X135800000Y-92847205D01*
X135832009Y-93049305D01*
X135895244Y-93243919D01*
X135988141Y-93426238D01*
X135988147Y-93426247D01*
X136020523Y-93470809D01*
X136020524Y-93470810D01*
X136700000Y-92791334D01*
X136700000Y-92797549D01*
X136727259Y-92899282D01*
X136779920Y-92990494D01*
X136854394Y-93064968D01*
X136945606Y-93117629D01*
X137047339Y-93144888D01*
X137053553Y-93144888D01*
X136374076Y-93824362D01*
X136418650Y-93856747D01*
X136600968Y-93949643D01*
X136766499Y-94003428D01*
X136824174Y-94042866D01*
X136851372Y-94107225D01*
X136839457Y-94176071D01*
X136792213Y-94227547D01*
X136728180Y-94245359D01*
X133382867Y-94245359D01*
X133315828Y-94225674D01*
X133270073Y-94172870D01*
X133259249Y-94111630D01*
X133261717Y-94080270D01*
X132629408Y-93447962D01*
X132692993Y-93430925D01*
X132807007Y-93365099D01*
X132900099Y-93272007D01*
X132965925Y-93157993D01*
X132982962Y-93094408D01*
X133615270Y-93726717D01*
X133615270Y-93726716D01*
X133654622Y-93672554D01*
X133751095Y-93483217D01*
X133816757Y-93281130D01*
X133816757Y-93281127D01*
X133850000Y-93071246D01*
X133850000Y-92858753D01*
X133818061Y-92657102D01*
X133818060Y-92657099D01*
X133816756Y-92648867D01*
X133751095Y-92446782D01*
X133654624Y-92257449D01*
X133615270Y-92203282D01*
X133615269Y-92203282D01*
X132982962Y-92835590D01*
X132965925Y-92772007D01*
X132900099Y-92657993D01*
X132807007Y-92564901D01*
X132692993Y-92499075D01*
X132629409Y-92482037D01*
X133261716Y-91849728D01*
X133207550Y-91810375D01*
X133013879Y-91711694D01*
X133014396Y-91710678D01*
X132964192Y-91670221D01*
X132942127Y-91603927D01*
X132959406Y-91536228D01*
X133010542Y-91488617D01*
X133066048Y-91475500D01*
X133369750Y-91475500D01*
X133369751Y-91475499D01*
X133384568Y-91472552D01*
X133428229Y-91463868D01*
X133428229Y-91463867D01*
X133428231Y-91463867D01*
X133494552Y-91419552D01*
X133538867Y-91353231D01*
X133538867Y-91353229D01*
X133538868Y-91353229D01*
X133550499Y-91294752D01*
X133550500Y-91294750D01*
X133550500Y-89555249D01*
X133550499Y-89555247D01*
X133538868Y-89496770D01*
X133538867Y-89496769D01*
X133494552Y-89430447D01*
X133428230Y-89386132D01*
X133428229Y-89386131D01*
X133369752Y-89374500D01*
X133369748Y-89374500D01*
X131630252Y-89374500D01*
X131630247Y-89374500D01*
X131571770Y-89386131D01*
X131571769Y-89386132D01*
X131505447Y-89430447D01*
X131461132Y-89496769D01*
X131461131Y-89496770D01*
X131449500Y-89555247D01*
X131449500Y-91294752D01*
X131461131Y-91353229D01*
X131461132Y-91353230D01*
X131505447Y-91419552D01*
X131571769Y-91463867D01*
X131571770Y-91463868D01*
X131630247Y-91475499D01*
X131630250Y-91475500D01*
X131933952Y-91475500D01*
X132000991Y-91495185D01*
X132046746Y-91547989D01*
X132056690Y-91617147D01*
X132027665Y-91680703D01*
X131985735Y-91710938D01*
X131986121Y-91711694D01*
X131792439Y-91810380D01*
X131738282Y-91849727D01*
X131738282Y-91849728D01*
X132370591Y-92482037D01*
X132307007Y-92499075D01*
X132192993Y-92564901D01*
X132099901Y-92657993D01*
X132034075Y-92772007D01*
X132017037Y-92835591D01*
X131384728Y-92203282D01*
X131384648Y-92203288D01*
X131329489Y-92245823D01*
X131259876Y-92251802D01*
X131198080Y-92219197D01*
X131163723Y-92158359D01*
X131160500Y-92130272D01*
X131160500Y-84881111D01*
X131180185Y-84814072D01*
X131232989Y-84768317D01*
X131302147Y-84758373D01*
X131353392Y-84778010D01*
X131422768Y-84824367D01*
X131422770Y-84824368D01*
X131481247Y-84835999D01*
X131481250Y-84836000D01*
X131481252Y-84836000D01*
X132878750Y-84836000D01*
X132878751Y-84835999D01*
X132893568Y-84833052D01*
X132937229Y-84824368D01*
X132937229Y-84824367D01*
X132937231Y-84824367D01*
X133003552Y-84780052D01*
X133047867Y-84713731D01*
X133047867Y-84713729D01*
X133047868Y-84713729D01*
X133059499Y-84655252D01*
X133059500Y-84655250D01*
X133059500Y-83257749D01*
X133059499Y-83257747D01*
X133047868Y-83199270D01*
X133047867Y-83199269D01*
X133003552Y-83132947D01*
X132937230Y-83088632D01*
X132937229Y-83088631D01*
X132878752Y-83077000D01*
X132878748Y-83077000D01*
X131481252Y-83077000D01*
X131481247Y-83077000D01*
X131422770Y-83088631D01*
X131422769Y-83088632D01*
X131353391Y-83134990D01*
X131286714Y-83155868D01*
X131219334Y-83137384D01*
X131172643Y-83085405D01*
X131160500Y-83031888D01*
X131160500Y-81876845D01*
X131180185Y-81809806D01*
X131232989Y-81764051D01*
X131302147Y-81754107D01*
X131365703Y-81783132D01*
X131399061Y-81829393D01*
X131400596Y-81833099D01*
X131400597Y-81833102D01*
X131496843Y-81977144D01*
X131496849Y-81977152D01*
X131619347Y-82099650D01*
X131619355Y-82099656D01*
X131763398Y-82195902D01*
X131763399Y-82195902D01*
X131763400Y-82195903D01*
X131923459Y-82262202D01*
X132093372Y-82295999D01*
X132093376Y-82296000D01*
X132093377Y-82296000D01*
X132266624Y-82296000D01*
X132266625Y-82295999D01*
X132436541Y-82262202D01*
X132596600Y-82195903D01*
X132596601Y-82195902D01*
X132596602Y-82195902D01*
X132728978Y-82107451D01*
X132740649Y-82099653D01*
X132863153Y-81977149D01*
X132935360Y-81869083D01*
X132959402Y-81833102D01*
X132959402Y-81833101D01*
X132959403Y-81833100D01*
X133025702Y-81673041D01*
X133059500Y-81503123D01*
X133059500Y-81329877D01*
X133025702Y-81159959D01*
X132959403Y-80999900D01*
X132959402Y-80999898D01*
X132959402Y-80999897D01*
X132863156Y-80855855D01*
X132863150Y-80855847D01*
X132740652Y-80733349D01*
X132740644Y-80733343D01*
X132596602Y-80637097D01*
X132498710Y-80596549D01*
X132436541Y-80570798D01*
X132436533Y-80570796D01*
X132266627Y-80537000D01*
X132266623Y-80537000D01*
X132093377Y-80537000D01*
X132093372Y-80537000D01*
X131923466Y-80570796D01*
X131923458Y-80570798D01*
X131763398Y-80637097D01*
X131763397Y-80637097D01*
X131619355Y-80733343D01*
X131619347Y-80733349D01*
X131496849Y-80855847D01*
X131496843Y-80855855D01*
X131400597Y-80999897D01*
X131399060Y-81003610D01*
X131397733Y-81005255D01*
X131397724Y-81005274D01*
X131397720Y-81005272D01*
X131355217Y-81058012D01*
X131288922Y-81080075D01*
X131221223Y-81062794D01*
X131173614Y-81011655D01*
X131160500Y-80956154D01*
X131160500Y-79336845D01*
X131180185Y-79269806D01*
X131232989Y-79224051D01*
X131302147Y-79214107D01*
X131365703Y-79243132D01*
X131399061Y-79289393D01*
X131400596Y-79293099D01*
X131400597Y-79293102D01*
X131496843Y-79437144D01*
X131496849Y-79437152D01*
X131619347Y-79559650D01*
X131619355Y-79559656D01*
X131763398Y-79655902D01*
X131763399Y-79655902D01*
X131763400Y-79655903D01*
X131923459Y-79722202D01*
X132093372Y-79755999D01*
X132093376Y-79756000D01*
X132093377Y-79756000D01*
X132266624Y-79756000D01*
X132266625Y-79755999D01*
X132436541Y-79722202D01*
X132596600Y-79655903D01*
X132596601Y-79655902D01*
X132596602Y-79655902D01*
X132668141Y-79608100D01*
X132740649Y-79559653D01*
X132863153Y-79437149D01*
X132952634Y-79303231D01*
X132959402Y-79293102D01*
X132959402Y-79293101D01*
X132959403Y-79293100D01*
X133025702Y-79133041D01*
X133059500Y-78963123D01*
X133059500Y-78789877D01*
X133025702Y-78619959D01*
X132959403Y-78459900D01*
X132959402Y-78459898D01*
X132959402Y-78459897D01*
X132863156Y-78315855D01*
X132863150Y-78315847D01*
X132740652Y-78193349D01*
X132740644Y-78193343D01*
X132596601Y-78097097D01*
X132436541Y-78030798D01*
X132436533Y-78030796D01*
X132266627Y-77997000D01*
X132266623Y-77997000D01*
X132093377Y-77997000D01*
X132093372Y-77997000D01*
X131923466Y-78030796D01*
X131923458Y-78030798D01*
X131763398Y-78097097D01*
X131763397Y-78097097D01*
X131619355Y-78193343D01*
X131619347Y-78193349D01*
X131496849Y-78315847D01*
X131496843Y-78315855D01*
X131400597Y-78459897D01*
X131399060Y-78463610D01*
X131397733Y-78465255D01*
X131397724Y-78465274D01*
X131397720Y-78465272D01*
X131355217Y-78518012D01*
X131288922Y-78540075D01*
X131221223Y-78522794D01*
X131173614Y-78471655D01*
X131160500Y-78416154D01*
X131160500Y-76796845D01*
X131180185Y-76729806D01*
X131232989Y-76684051D01*
X131302147Y-76674107D01*
X131365703Y-76703132D01*
X131399061Y-76749393D01*
X131400596Y-76753099D01*
X131400597Y-76753102D01*
X131496843Y-76897144D01*
X131496849Y-76897152D01*
X131619347Y-77019650D01*
X131619355Y-77019656D01*
X131763398Y-77115902D01*
X131763399Y-77115902D01*
X131763400Y-77115903D01*
X131923459Y-77182202D01*
X132093372Y-77215999D01*
X132093376Y-77216000D01*
X132093377Y-77216000D01*
X132266624Y-77216000D01*
X132266625Y-77215999D01*
X132436541Y-77182202D01*
X132476092Y-77165818D01*
X132545561Y-77158349D01*
X132608040Y-77189623D01*
X132611227Y-77192698D01*
X133978040Y-78559511D01*
X134033989Y-78615460D01*
X134033991Y-78615461D01*
X134033995Y-78615464D01*
X134102504Y-78655017D01*
X134102511Y-78655021D01*
X134178938Y-78675500D01*
X134258062Y-78675500D01*
X134925500Y-78675500D01*
X134992539Y-78695185D01*
X135038294Y-78747989D01*
X135049500Y-78799500D01*
X135049500Y-79244752D01*
X135061131Y-79303229D01*
X135061132Y-79303230D01*
X135105447Y-79369552D01*
X135171769Y-79413867D01*
X135171770Y-79413868D01*
X135230247Y-79425499D01*
X135230250Y-79425500D01*
X135230252Y-79425500D01*
X136969750Y-79425500D01*
X136969751Y-79425499D01*
X136984568Y-79422552D01*
X137028229Y-79413868D01*
X137028229Y-79413867D01*
X137028231Y-79413867D01*
X137094552Y-79369552D01*
X137138867Y-79303231D01*
X137138867Y-79303229D01*
X137138868Y-79303229D01*
X137150499Y-79244752D01*
X137150500Y-79244750D01*
X137150500Y-77648500D01*
X137170185Y-77581461D01*
X137222989Y-77535706D01*
X137274500Y-77524500D01*
X138473167Y-77524500D01*
X138502607Y-77533144D01*
X138532594Y-77539668D01*
X138537609Y-77543422D01*
X138540206Y-77544185D01*
X138560848Y-77560819D01*
X138713181Y-77713152D01*
X138746666Y-77774475D01*
X138749500Y-77800833D01*
X138749500Y-79244752D01*
X138761131Y-79303229D01*
X138761132Y-79303230D01*
X138805447Y-79369552D01*
X138871769Y-79413867D01*
X138871770Y-79413868D01*
X138930247Y-79425499D01*
X138930250Y-79425500D01*
X138930252Y-79425500D01*
X140669750Y-79425500D01*
X140669751Y-79425499D01*
X140684568Y-79422552D01*
X140728229Y-79413868D01*
X140728229Y-79413867D01*
X140728231Y-79413867D01*
X140794552Y-79369552D01*
X140838867Y-79303231D01*
X140838867Y-79303229D01*
X140838868Y-79303229D01*
X140850499Y-79244752D01*
X140850500Y-79244750D01*
X140850500Y-77505249D01*
X140850499Y-77505247D01*
X142449500Y-77505247D01*
X142449500Y-79244752D01*
X142461131Y-79303229D01*
X142461132Y-79303230D01*
X142505447Y-79369552D01*
X142571769Y-79413867D01*
X142571770Y-79413868D01*
X142630247Y-79425499D01*
X142630250Y-79425500D01*
X142630252Y-79425500D01*
X144369750Y-79425500D01*
X144369751Y-79425499D01*
X144384568Y-79422552D01*
X144428229Y-79413868D01*
X144428229Y-79413867D01*
X144428231Y-79413867D01*
X144494552Y-79369552D01*
X144538867Y-79303231D01*
X144538867Y-79303229D01*
X144538868Y-79303229D01*
X144550499Y-79244752D01*
X144550500Y-79244750D01*
X144550500Y-77505249D01*
X144550499Y-77505247D01*
X144538868Y-77446770D01*
X144538867Y-77446769D01*
X144494552Y-77380447D01*
X144428230Y-77336132D01*
X144428229Y-77336131D01*
X144369752Y-77324500D01*
X144369748Y-77324500D01*
X142630252Y-77324500D01*
X142630247Y-77324500D01*
X142571770Y-77336131D01*
X142571769Y-77336132D01*
X142505447Y-77380447D01*
X142461132Y-77446769D01*
X142461131Y-77446770D01*
X142449500Y-77505247D01*
X140850499Y-77505247D01*
X140838868Y-77446770D01*
X140838867Y-77446769D01*
X140794552Y-77380447D01*
X140728230Y-77336132D01*
X140728229Y-77336131D01*
X140669752Y-77324500D01*
X140669748Y-77324500D01*
X139225833Y-77324500D01*
X139158794Y-77304815D01*
X139138152Y-77288181D01*
X138833512Y-76983541D01*
X138833504Y-76983535D01*
X138764995Y-76943982D01*
X138764990Y-76943979D01*
X138739513Y-76937152D01*
X138688562Y-76923500D01*
X138688560Y-76923500D01*
X136770568Y-76923500D01*
X136703529Y-76903815D01*
X136657774Y-76851011D01*
X136647830Y-76781853D01*
X136676855Y-76718297D01*
X136701675Y-76696398D01*
X136769655Y-76650977D01*
X136915977Y-76504655D01*
X137030941Y-76332598D01*
X137110130Y-76141420D01*
X137150500Y-75938465D01*
X137150500Y-75731535D01*
X137150499Y-75731530D01*
X138749500Y-75731530D01*
X138749500Y-75938469D01*
X138789868Y-76141412D01*
X138789870Y-76141420D01*
X138869058Y-76332596D01*
X138984024Y-76504657D01*
X139130342Y-76650975D01*
X139130345Y-76650977D01*
X139302402Y-76765941D01*
X139493580Y-76845130D01*
X139696530Y-76885499D01*
X139696534Y-76885500D01*
X139696535Y-76885500D01*
X139903466Y-76885500D01*
X139903467Y-76885499D01*
X140106420Y-76845130D01*
X140297598Y-76765941D01*
X140469655Y-76650977D01*
X140615977Y-76504655D01*
X140730941Y-76332598D01*
X140810130Y-76141420D01*
X140850500Y-75938465D01*
X140850500Y-75731535D01*
X140850499Y-75731530D01*
X142449500Y-75731530D01*
X142449500Y-75938469D01*
X142489868Y-76141412D01*
X142489870Y-76141420D01*
X142569058Y-76332596D01*
X142684024Y-76504657D01*
X142830342Y-76650975D01*
X142830345Y-76650977D01*
X143002402Y-76765941D01*
X143193580Y-76845130D01*
X143396530Y-76885499D01*
X143396534Y-76885500D01*
X143396535Y-76885500D01*
X143603466Y-76885500D01*
X143603467Y-76885499D01*
X143806420Y-76845130D01*
X143997598Y-76765941D01*
X144169655Y-76650977D01*
X144315977Y-76504655D01*
X144430941Y-76332598D01*
X144510130Y-76141420D01*
X144550500Y-75938465D01*
X144550500Y-75731535D01*
X144510130Y-75528580D01*
X144430941Y-75337402D01*
X144315977Y-75165345D01*
X144315975Y-75165342D01*
X144169657Y-75019024D01*
X143997595Y-74904057D01*
X143877047Y-74854124D01*
X143822643Y-74810282D01*
X143800579Y-74743988D01*
X143800500Y-74739563D01*
X143800500Y-72724500D01*
X143820185Y-72657461D01*
X143872989Y-72611706D01*
X143924500Y-72600500D01*
X144004270Y-72600500D01*
X144034699Y-72597646D01*
X144034701Y-72597646D01*
X144098790Y-72575219D01*
X144162882Y-72552793D01*
X144272150Y-72472150D01*
X144352793Y-72362882D01*
X144375219Y-72298790D01*
X144397646Y-72234701D01*
X144397646Y-72234699D01*
X144400500Y-72204269D01*
X144400500Y-71395730D01*
X144397646Y-71365300D01*
X144397646Y-71365298D01*
X144352793Y-71237119D01*
X144352792Y-71237117D01*
X144272150Y-71127850D01*
X144162882Y-71047207D01*
X144162880Y-71047206D01*
X144034700Y-71002353D01*
X144004270Y-70999500D01*
X144004266Y-70999500D01*
X142995734Y-70999500D01*
X142995730Y-70999500D01*
X142965300Y-71002353D01*
X142965298Y-71002353D01*
X142837119Y-71047206D01*
X142837117Y-71047207D01*
X142727850Y-71127850D01*
X142647207Y-71237117D01*
X142647206Y-71237119D01*
X142602353Y-71365298D01*
X142602353Y-71365300D01*
X142599500Y-71395730D01*
X142599500Y-72204269D01*
X142602353Y-72234699D01*
X142602353Y-72234701D01*
X142647206Y-72362880D01*
X142647207Y-72362882D01*
X142727850Y-72472150D01*
X142837118Y-72552793D01*
X142879845Y-72567744D01*
X142965299Y-72597646D01*
X142995730Y-72600500D01*
X142995734Y-72600500D01*
X143075500Y-72600500D01*
X143142539Y-72620185D01*
X143188294Y-72672989D01*
X143199500Y-72724500D01*
X143199500Y-74739563D01*
X143179815Y-74806602D01*
X143127011Y-74852357D01*
X143122953Y-74854124D01*
X143002404Y-74904057D01*
X142830342Y-75019024D01*
X142684024Y-75165342D01*
X142569058Y-75337403D01*
X142489870Y-75528579D01*
X142489868Y-75528587D01*
X142449500Y-75731530D01*
X140850499Y-75731530D01*
X140810130Y-75528580D01*
X140730941Y-75337402D01*
X140615977Y-75165345D01*
X140615975Y-75165342D01*
X140469657Y-75019024D01*
X140297595Y-74904057D01*
X140177047Y-74854124D01*
X140122643Y-74810282D01*
X140100579Y-74743988D01*
X140100500Y-74739563D01*
X140100500Y-72724500D01*
X140120185Y-72657461D01*
X140172989Y-72611706D01*
X140224500Y-72600500D01*
X140304270Y-72600500D01*
X140334699Y-72597646D01*
X140334701Y-72597646D01*
X140398790Y-72575219D01*
X140462882Y-72552793D01*
X140572150Y-72472150D01*
X140652793Y-72362882D01*
X140675219Y-72298790D01*
X140697646Y-72234701D01*
X140697646Y-72234699D01*
X140700500Y-72204269D01*
X140700500Y-71395730D01*
X140697646Y-71365300D01*
X140697646Y-71365298D01*
X140652793Y-71237119D01*
X140652792Y-71237117D01*
X140572150Y-71127850D01*
X140462882Y-71047207D01*
X140462880Y-71047206D01*
X140334700Y-71002353D01*
X140304270Y-70999500D01*
X140304266Y-70999500D01*
X139295734Y-70999500D01*
X139295730Y-70999500D01*
X139265300Y-71002353D01*
X139265298Y-71002353D01*
X139137119Y-71047206D01*
X139137117Y-71047207D01*
X139027850Y-71127850D01*
X138947207Y-71237117D01*
X138947206Y-71237119D01*
X138902353Y-71365298D01*
X138902353Y-71365300D01*
X138899500Y-71395730D01*
X138899500Y-72204269D01*
X138902353Y-72234699D01*
X138902353Y-72234701D01*
X138947206Y-72362880D01*
X138947207Y-72362882D01*
X139027850Y-72472150D01*
X139137118Y-72552793D01*
X139179845Y-72567744D01*
X139265299Y-72597646D01*
X139295730Y-72600500D01*
X139295734Y-72600500D01*
X139375500Y-72600500D01*
X139442539Y-72620185D01*
X139488294Y-72672989D01*
X139499500Y-72724500D01*
X139499500Y-74739563D01*
X139479815Y-74806602D01*
X139427011Y-74852357D01*
X139422953Y-74854124D01*
X139302404Y-74904057D01*
X139130342Y-75019024D01*
X138984024Y-75165342D01*
X138869058Y-75337403D01*
X138789870Y-75528579D01*
X138789868Y-75528587D01*
X138749500Y-75731530D01*
X137150499Y-75731530D01*
X137110130Y-75528580D01*
X137030941Y-75337402D01*
X136915977Y-75165345D01*
X136915975Y-75165342D01*
X136769657Y-75019024D01*
X136597595Y-74904057D01*
X136477047Y-74854124D01*
X136422643Y-74810282D01*
X136400579Y-74743988D01*
X136400500Y-74739563D01*
X136400500Y-72724500D01*
X136420185Y-72657461D01*
X136472989Y-72611706D01*
X136524500Y-72600500D01*
X136604270Y-72600500D01*
X136634699Y-72597646D01*
X136634701Y-72597646D01*
X136698790Y-72575219D01*
X136762882Y-72552793D01*
X136872150Y-72472150D01*
X136952793Y-72362882D01*
X136975219Y-72298790D01*
X136997646Y-72234701D01*
X136997646Y-72234699D01*
X137000500Y-72204269D01*
X137000500Y-71395730D01*
X136997646Y-71365300D01*
X136997646Y-71365298D01*
X136952793Y-71237119D01*
X136952792Y-71237117D01*
X136872150Y-71127850D01*
X136762882Y-71047207D01*
X136762880Y-71047206D01*
X136634700Y-71002353D01*
X136604270Y-70999500D01*
X136604266Y-70999500D01*
X135595734Y-70999500D01*
X135595730Y-70999500D01*
X135565300Y-71002353D01*
X135565298Y-71002353D01*
X135437119Y-71047206D01*
X135437117Y-71047207D01*
X135327850Y-71127850D01*
X135247207Y-71237117D01*
X135247206Y-71237119D01*
X135202353Y-71365298D01*
X135202353Y-71365300D01*
X135199500Y-71395730D01*
X135199500Y-72204269D01*
X135202353Y-72234699D01*
X135202353Y-72234701D01*
X135247206Y-72362880D01*
X135247207Y-72362882D01*
X135327850Y-72472150D01*
X135437118Y-72552793D01*
X135479845Y-72567744D01*
X135565299Y-72597646D01*
X135595730Y-72600500D01*
X135595734Y-72600500D01*
X135675500Y-72600500D01*
X135742539Y-72620185D01*
X135788294Y-72672989D01*
X135799500Y-72724500D01*
X135799500Y-74739563D01*
X135779815Y-74806602D01*
X135727011Y-74852357D01*
X135722953Y-74854124D01*
X135602404Y-74904057D01*
X135430342Y-75019024D01*
X135430341Y-75019025D01*
X135414181Y-75035186D01*
X135352858Y-75068671D01*
X135283166Y-75063687D01*
X135227233Y-75021815D01*
X135202816Y-74956351D01*
X135202500Y-74947505D01*
X135202500Y-74934110D01*
X135202500Y-74934108D01*
X135168392Y-74806814D01*
X135102500Y-74692686D01*
X135038818Y-74629004D01*
X135005334Y-74567680D01*
X135002500Y-74541323D01*
X135002500Y-73738940D01*
X135002499Y-73738935D01*
X134994713Y-73709875D01*
X134982023Y-73662514D01*
X134982022Y-73662513D01*
X134982022Y-73662512D01*
X134942460Y-73593989D01*
X133036198Y-71687727D01*
X133002713Y-71626404D01*
X133007697Y-71556712D01*
X133009319Y-71552591D01*
X133025702Y-71513041D01*
X133059500Y-71343123D01*
X133059500Y-71169877D01*
X133025702Y-70999959D01*
X132959403Y-70839900D01*
X132959402Y-70839898D01*
X132959402Y-70839897D01*
X132863156Y-70695855D01*
X132863150Y-70695847D01*
X132740652Y-70573349D01*
X132740644Y-70573343D01*
X132596601Y-70477097D01*
X132436541Y-70410798D01*
X132436533Y-70410796D01*
X132266627Y-70377000D01*
X132266623Y-70377000D01*
X132093377Y-70377000D01*
X132093372Y-70377000D01*
X131923466Y-70410796D01*
X131923458Y-70410798D01*
X131763398Y-70477097D01*
X131763397Y-70477097D01*
X131619355Y-70573343D01*
X131619347Y-70573349D01*
X131496849Y-70695847D01*
X131496843Y-70695855D01*
X131400597Y-70839897D01*
X131399060Y-70843610D01*
X131397733Y-70845255D01*
X131397724Y-70845274D01*
X131397720Y-70845272D01*
X131355217Y-70898012D01*
X131288922Y-70920075D01*
X131221223Y-70902794D01*
X131173614Y-70851655D01*
X131160500Y-70796154D01*
X131160500Y-69176845D01*
X131180185Y-69109806D01*
X131232989Y-69064051D01*
X131302147Y-69054107D01*
X131365703Y-69083132D01*
X131399061Y-69129393D01*
X131400596Y-69133099D01*
X131400597Y-69133102D01*
X131496843Y-69277144D01*
X131496849Y-69277152D01*
X131619347Y-69399650D01*
X131619355Y-69399656D01*
X131763398Y-69495902D01*
X131763399Y-69495902D01*
X131763400Y-69495903D01*
X131923459Y-69562202D01*
X132093372Y-69595999D01*
X132093376Y-69596000D01*
X132093377Y-69596000D01*
X132266624Y-69596000D01*
X132266625Y-69595999D01*
X132436541Y-69562202D01*
X132596600Y-69495903D01*
X132596601Y-69495902D01*
X132596602Y-69495902D01*
X132668141Y-69448100D01*
X132740649Y-69399653D01*
X132863153Y-69277149D01*
X132959403Y-69133100D01*
X133025702Y-68973041D01*
X133059500Y-68803123D01*
X133059500Y-68629877D01*
X133025702Y-68459959D01*
X132959403Y-68299900D01*
X132959402Y-68299898D01*
X132959402Y-68299897D01*
X132863156Y-68155855D01*
X132863150Y-68155847D01*
X132740652Y-68033349D01*
X132740644Y-68033343D01*
X132596601Y-67937097D01*
X132436541Y-67870798D01*
X132436533Y-67870796D01*
X132266627Y-67837000D01*
X132266623Y-67837000D01*
X132093377Y-67837000D01*
X132093372Y-67837000D01*
X131923466Y-67870796D01*
X131923458Y-67870798D01*
X131763398Y-67937097D01*
X131763397Y-67937097D01*
X131619355Y-68033343D01*
X131619347Y-68033349D01*
X131496849Y-68155847D01*
X131496843Y-68155855D01*
X131400597Y-68299897D01*
X131399060Y-68303610D01*
X131397733Y-68305255D01*
X131397724Y-68305274D01*
X131397720Y-68305272D01*
X131355217Y-68358012D01*
X131288922Y-68380075D01*
X131221223Y-68362794D01*
X131173614Y-68311655D01*
X131160500Y-68256154D01*
X131160500Y-65105000D01*
X134975001Y-65105000D01*
X134975001Y-65242486D01*
X134985494Y-65345197D01*
X135040641Y-65511619D01*
X135040643Y-65511624D01*
X135132684Y-65660845D01*
X135256654Y-65784815D01*
X135405875Y-65876856D01*
X135405882Y-65876859D01*
X135574081Y-65932594D01*
X135631526Y-65972366D01*
X135658350Y-66036882D01*
X135646035Y-66105658D01*
X135598493Y-66156858D01*
X135576035Y-66167341D01*
X135534422Y-66181902D01*
X135512118Y-66189707D01*
X135512117Y-66189707D01*
X135512116Y-66189708D01*
X135402850Y-66270350D01*
X135322207Y-66379617D01*
X135322206Y-66379619D01*
X135277353Y-66507798D01*
X135277353Y-66507800D01*
X135274500Y-66538230D01*
X135274500Y-67321769D01*
X135277353Y-67352199D01*
X135277353Y-67352201D01*
X135322206Y-67480380D01*
X135322207Y-67480382D01*
X135402850Y-67589650D01*
X135512118Y-67670293D01*
X135552202Y-67684319D01*
X135640299Y-67715146D01*
X135670730Y-67718000D01*
X135670734Y-67718000D01*
X135775500Y-67718000D01*
X135842539Y-67737685D01*
X135888294Y-67790489D01*
X135899500Y-67842000D01*
X135899500Y-68875500D01*
X135879815Y-68942539D01*
X135827011Y-68988294D01*
X135775500Y-68999500D01*
X135595730Y-68999500D01*
X135565300Y-69002353D01*
X135565298Y-69002353D01*
X135437119Y-69047206D01*
X135437117Y-69047207D01*
X135327850Y-69127850D01*
X135247207Y-69237117D01*
X135247206Y-69237119D01*
X135202353Y-69365298D01*
X135202353Y-69365300D01*
X135199500Y-69395730D01*
X135199500Y-70204269D01*
X135202353Y-70234699D01*
X135202353Y-70234701D01*
X135247206Y-70362880D01*
X135247207Y-70362882D01*
X135327850Y-70472150D01*
X135437118Y-70552793D01*
X135479845Y-70567744D01*
X135565299Y-70597646D01*
X135595730Y-70600500D01*
X135595734Y-70600500D01*
X136604270Y-70600500D01*
X136634699Y-70597646D01*
X136634701Y-70597646D01*
X136704153Y-70573343D01*
X136762882Y-70552793D01*
X136872150Y-70472150D01*
X136952793Y-70362882D01*
X136975219Y-70298790D01*
X136997646Y-70234701D01*
X136997646Y-70234699D01*
X136999689Y-70212921D01*
X137025547Y-70148013D01*
X137082393Y-70107388D01*
X137123147Y-70100500D01*
X138776853Y-70100500D01*
X138843892Y-70120185D01*
X138889647Y-70172989D01*
X138900311Y-70212921D01*
X138902353Y-70234699D01*
X138902353Y-70234701D01*
X138947206Y-70362880D01*
X138947207Y-70362882D01*
X139027850Y-70472150D01*
X139137118Y-70552793D01*
X139179845Y-70567744D01*
X139265299Y-70597646D01*
X139295730Y-70600500D01*
X139295734Y-70600500D01*
X140304270Y-70600500D01*
X140334699Y-70597646D01*
X140334701Y-70597646D01*
X140404153Y-70573343D01*
X140462882Y-70552793D01*
X140572150Y-70472150D01*
X140652793Y-70362882D01*
X140675219Y-70298790D01*
X140697646Y-70234701D01*
X140697646Y-70234699D01*
X140699689Y-70212921D01*
X140725547Y-70148013D01*
X140782393Y-70107388D01*
X140823147Y-70100500D01*
X142476853Y-70100500D01*
X142543892Y-70120185D01*
X142589647Y-70172989D01*
X142600311Y-70212921D01*
X142602353Y-70234699D01*
X142602353Y-70234701D01*
X142647206Y-70362880D01*
X142647207Y-70362882D01*
X142727850Y-70472150D01*
X142837118Y-70552793D01*
X142879845Y-70567744D01*
X142965299Y-70597646D01*
X142995730Y-70600500D01*
X142995734Y-70600500D01*
X144004270Y-70600500D01*
X144034699Y-70597646D01*
X144034701Y-70597646D01*
X144104153Y-70573343D01*
X144162882Y-70552793D01*
X144265208Y-70477273D01*
X144330835Y-70453303D01*
X144399005Y-70468618D01*
X144446227Y-70515043D01*
X144499500Y-70607314D01*
X144592686Y-70700500D01*
X144706814Y-70766392D01*
X144834108Y-70800500D01*
X144834110Y-70800500D01*
X144965890Y-70800500D01*
X144965892Y-70800500D01*
X145093186Y-70766392D01*
X145207314Y-70700500D01*
X145300500Y-70607314D01*
X145366392Y-70493186D01*
X145400500Y-70365892D01*
X145400500Y-70234108D01*
X145366392Y-70106814D01*
X145300500Y-69992686D01*
X145207314Y-69899500D01*
X145150250Y-69866554D01*
X145093187Y-69833608D01*
X145029539Y-69816554D01*
X144965892Y-69799500D01*
X144875833Y-69799500D01*
X144808794Y-69779815D01*
X144788152Y-69763181D01*
X144584512Y-69559541D01*
X144584504Y-69559535D01*
X144515995Y-69519982D01*
X144515991Y-69519980D01*
X144515989Y-69519979D01*
X144515987Y-69519978D01*
X144515986Y-69519978D01*
X144492404Y-69513659D01*
X144432745Y-69477293D01*
X144402217Y-69414446D01*
X144400895Y-69398617D01*
X144400636Y-69398630D01*
X144400500Y-69395736D01*
X144400499Y-69395730D01*
X144397646Y-69365301D01*
X144397646Y-69365300D01*
X144397646Y-69365298D01*
X144352793Y-69237119D01*
X144352792Y-69237117D01*
X144272150Y-69127850D01*
X144162882Y-69047207D01*
X144162880Y-69047206D01*
X144034700Y-69002353D01*
X144004270Y-68999500D01*
X144004266Y-68999500D01*
X142995734Y-68999500D01*
X142995730Y-68999500D01*
X142965300Y-69002353D01*
X142965298Y-69002353D01*
X142837119Y-69047206D01*
X142837117Y-69047207D01*
X142727850Y-69127850D01*
X142647207Y-69237117D01*
X142647206Y-69237119D01*
X142602353Y-69365298D01*
X142602353Y-69365300D01*
X142600311Y-69387079D01*
X142574453Y-69451987D01*
X142517607Y-69492612D01*
X142476853Y-69499500D01*
X140823147Y-69499500D01*
X140756108Y-69479815D01*
X140710353Y-69427011D01*
X140699689Y-69387079D01*
X140697646Y-69365300D01*
X140697646Y-69365298D01*
X140652793Y-69237119D01*
X140652792Y-69237117D01*
X140572150Y-69127850D01*
X140525022Y-69093068D01*
X140482773Y-69037421D01*
X140477314Y-68967765D01*
X140510382Y-68906216D01*
X140544524Y-68881739D01*
X140555146Y-68876584D01*
X140593186Y-68866392D01*
X140682911Y-68814588D01*
X140686903Y-68812652D01*
X140717138Y-68807580D01*
X140746934Y-68800352D01*
X140751277Y-68801855D01*
X140755811Y-68801095D01*
X140783990Y-68813176D01*
X140812961Y-68823203D01*
X140818701Y-68828058D01*
X140820027Y-68828627D01*
X140820900Y-68829919D01*
X140828717Y-68836531D01*
X140892686Y-68900500D01*
X141006814Y-68966392D01*
X141134108Y-69000500D01*
X141134110Y-69000500D01*
X141265890Y-69000500D01*
X141265892Y-69000500D01*
X141393186Y-68966392D01*
X141507314Y-68900500D01*
X141600500Y-68807314D01*
X141666392Y-68693186D01*
X141700500Y-68565892D01*
X141700500Y-68434108D01*
X141666392Y-68306814D01*
X141662398Y-68299897D01*
X141637143Y-68256154D01*
X141600500Y-68192686D01*
X141517494Y-68109680D01*
X141485401Y-68054091D01*
X141480021Y-68034012D01*
X141480017Y-68034004D01*
X141440464Y-67965495D01*
X141440458Y-67965487D01*
X141334652Y-67859681D01*
X141301167Y-67798358D01*
X141306151Y-67728666D01*
X141348023Y-67672733D01*
X141413487Y-67648316D01*
X141422333Y-67648000D01*
X142626896Y-67648000D01*
X142693935Y-67667685D01*
X142700519Y-67672222D01*
X142704680Y-67675293D01*
X142730475Y-67684319D01*
X142832861Y-67720146D01*
X142863292Y-67723000D01*
X142863296Y-67723000D01*
X143871832Y-67723000D01*
X143902261Y-67720146D01*
X143902263Y-67720146D01*
X143982552Y-67692051D01*
X144030444Y-67675293D01*
X144139712Y-67594650D01*
X144220355Y-67485382D01*
X144242781Y-67421290D01*
X144265208Y-67357201D01*
X144265208Y-67357199D01*
X144268062Y-67326769D01*
X144268062Y-66518230D01*
X144265208Y-66487800D01*
X144265208Y-66487798D01*
X144231028Y-66390120D01*
X144220355Y-66359618D01*
X144139712Y-66250350D01*
X144056958Y-66189275D01*
X144014709Y-66133629D01*
X144009250Y-66063972D01*
X144042318Y-66002423D01*
X144091590Y-65971800D01*
X144136679Y-65956859D01*
X144136686Y-65956856D01*
X144285907Y-65864815D01*
X144409877Y-65740845D01*
X144501918Y-65591624D01*
X144501920Y-65591619D01*
X144557067Y-65425197D01*
X144557068Y-65425190D01*
X144567561Y-65322486D01*
X144567562Y-65322473D01*
X144567562Y-65172500D01*
X142167563Y-65172500D01*
X142167563Y-65322486D01*
X142178056Y-65425197D01*
X142233203Y-65591619D01*
X142233205Y-65591624D01*
X142325246Y-65740845D01*
X142449216Y-65864815D01*
X142598437Y-65956856D01*
X142598442Y-65956858D01*
X142643534Y-65971800D01*
X142700979Y-66011572D01*
X142727802Y-66076088D01*
X142715487Y-66144864D01*
X142678164Y-66189276D01*
X142595412Y-66250350D01*
X142514769Y-66359617D01*
X142514768Y-66359619D01*
X142469915Y-66487798D01*
X142469915Y-66487800D01*
X142467062Y-66518230D01*
X142467062Y-66923000D01*
X142447377Y-66990039D01*
X142394573Y-67035794D01*
X142343062Y-67047000D01*
X141499500Y-67047000D01*
X141432461Y-67027315D01*
X141386706Y-66974511D01*
X141375500Y-66923000D01*
X141375500Y-66477749D01*
X141375499Y-66477747D01*
X141361485Y-66407290D01*
X141362762Y-66407035D01*
X141356680Y-66350491D01*
X141363694Y-66326600D01*
X141375499Y-66267252D01*
X141375500Y-66267250D01*
X141375500Y-65827749D01*
X141375499Y-65827747D01*
X141363868Y-65769270D01*
X141363867Y-65769269D01*
X141319552Y-65702947D01*
X141253230Y-65658632D01*
X141253229Y-65658631D01*
X141194752Y-65647000D01*
X141194748Y-65647000D01*
X141043851Y-65647000D01*
X140976812Y-65627315D01*
X140931057Y-65574511D01*
X140921113Y-65505353D01*
X140933367Y-65466705D01*
X141027922Y-65281132D01*
X141092373Y-65082772D01*
X141125000Y-64876779D01*
X141125000Y-64668220D01*
X141104496Y-64538762D01*
X141101922Y-64522513D01*
X142167562Y-64522513D01*
X142167562Y-64672500D01*
X143117562Y-64672500D01*
X143617562Y-64672500D01*
X144567561Y-64672500D01*
X144567561Y-64522528D01*
X144567560Y-64522513D01*
X144557067Y-64419802D01*
X144501920Y-64253380D01*
X144501918Y-64253375D01*
X144409877Y-64104154D01*
X144285907Y-63980184D01*
X144136686Y-63888143D01*
X144136681Y-63888141D01*
X143970259Y-63832994D01*
X143970252Y-63832993D01*
X143867548Y-63822500D01*
X143617562Y-63822500D01*
X143617562Y-64672500D01*
X143117562Y-64672500D01*
X143117562Y-63822500D01*
X142867591Y-63822500D01*
X142867574Y-63822501D01*
X142764864Y-63832994D01*
X142598442Y-63888141D01*
X142598437Y-63888143D01*
X142449216Y-63980184D01*
X142325246Y-64104154D01*
X142233205Y-64253375D01*
X142233203Y-64253380D01*
X142178056Y-64419802D01*
X142178055Y-64419809D01*
X142167562Y-64522513D01*
X141101922Y-64522513D01*
X141092374Y-64462227D01*
X141027924Y-64263872D01*
X140933244Y-64078056D01*
X140933236Y-64078043D01*
X140897372Y-64028680D01*
X140897371Y-64028679D01*
X140303374Y-64622676D01*
X140289222Y-64569858D01*
X140220104Y-64450143D01*
X140122357Y-64352396D01*
X140002642Y-64283278D01*
X139949821Y-64269124D01*
X140543819Y-63675127D01*
X140494451Y-63639259D01*
X140308627Y-63544575D01*
X140110272Y-63480126D01*
X139904279Y-63447500D01*
X139695721Y-63447500D01*
X139489727Y-63480126D01*
X139291372Y-63544575D01*
X139105552Y-63639257D01*
X139056180Y-63675127D01*
X139650178Y-64269124D01*
X139597358Y-64283278D01*
X139477643Y-64352396D01*
X139379896Y-64450143D01*
X139310778Y-64569858D01*
X139296624Y-64622677D01*
X138702627Y-64028680D01*
X138666757Y-64078052D01*
X138572075Y-64263872D01*
X138507626Y-64462227D01*
X138475000Y-64668220D01*
X138475000Y-64876779D01*
X138507626Y-65082772D01*
X138572077Y-65281132D01*
X138666633Y-65466705D01*
X138679530Y-65535374D01*
X138653254Y-65600114D01*
X138596148Y-65640372D01*
X138556149Y-65647000D01*
X138405247Y-65647000D01*
X138346770Y-65658631D01*
X138346769Y-65658632D01*
X138280447Y-65702947D01*
X138236132Y-65769269D01*
X138236131Y-65769270D01*
X138224500Y-65827747D01*
X138224500Y-65960943D01*
X138204815Y-66027982D01*
X138174812Y-66060209D01*
X138067809Y-66140312D01*
X137981649Y-66255406D01*
X137981645Y-66255413D01*
X137931403Y-66390120D01*
X137931401Y-66390127D01*
X137925000Y-66449655D01*
X137925000Y-66497500D01*
X138601000Y-66497500D01*
X138609685Y-66500050D01*
X138618647Y-66498762D01*
X138642687Y-66509740D01*
X138668039Y-66517185D01*
X138673966Y-66524025D01*
X138682203Y-66527787D01*
X138696492Y-66550021D01*
X138713794Y-66569989D01*
X138716081Y-66580503D01*
X138719977Y-66586565D01*
X138725000Y-66621500D01*
X138725000Y-66773500D01*
X138705315Y-66840539D01*
X138652511Y-66886294D01*
X138601000Y-66897500D01*
X137925000Y-66897500D01*
X137925000Y-66923000D01*
X137905315Y-66990039D01*
X137852511Y-67035794D01*
X137801000Y-67047000D01*
X137249500Y-67047000D01*
X137182461Y-67027315D01*
X137136706Y-66974511D01*
X137125500Y-66923000D01*
X137125500Y-66538230D01*
X137122646Y-66507800D01*
X137122646Y-66507798D01*
X137077793Y-66379619D01*
X137077792Y-66379617D01*
X136997150Y-66270350D01*
X136887882Y-66189707D01*
X136887880Y-66189706D01*
X136823967Y-66167342D01*
X136767191Y-66126620D01*
X136741444Y-66061668D01*
X136754901Y-65993106D01*
X136803288Y-65942703D01*
X136825918Y-65932595D01*
X136994119Y-65876858D01*
X136994124Y-65876856D01*
X137143345Y-65784815D01*
X137267315Y-65660845D01*
X137359356Y-65511624D01*
X137359358Y-65511619D01*
X137414505Y-65345197D01*
X137414506Y-65345190D01*
X137424999Y-65242486D01*
X137425000Y-65242473D01*
X137425000Y-65105000D01*
X134975001Y-65105000D01*
X131160500Y-65105000D01*
X131160500Y-64467513D01*
X134975000Y-64467513D01*
X134975000Y-64605000D01*
X135950000Y-64605000D01*
X136450000Y-64605000D01*
X137424999Y-64605000D01*
X137424999Y-64467528D01*
X137424998Y-64467513D01*
X137414505Y-64364802D01*
X137359358Y-64198380D01*
X137359356Y-64198375D01*
X137267315Y-64049154D01*
X137143345Y-63925184D01*
X136994121Y-63833142D01*
X136827697Y-63777994D01*
X136827690Y-63777993D01*
X136724986Y-63767500D01*
X136450000Y-63767500D01*
X136450000Y-64605000D01*
X135950000Y-64605000D01*
X135950000Y-63767500D01*
X135675029Y-63767500D01*
X135675012Y-63767501D01*
X135572302Y-63777994D01*
X135405880Y-63833141D01*
X135405875Y-63833143D01*
X135256654Y-63925184D01*
X135132684Y-64049154D01*
X135040643Y-64198375D01*
X135040641Y-64198380D01*
X134985494Y-64364802D01*
X134985493Y-64364809D01*
X134975000Y-64467513D01*
X131160500Y-64467513D01*
X131160500Y-63297000D01*
X131180185Y-63229961D01*
X131232989Y-63184206D01*
X131284500Y-63173000D01*
X148315500Y-63173000D01*
X148382539Y-63192685D01*
G37*
%TD.AperFunction*%
%TD*%
M02*
